<?xml version="1.0" ?><svg xmlns="http://www.w3.org/2000/svg" xmlns:xlink="http://www.w3.org/1999/xlink" viewBox="0 0 128 128"><defs><style>.cls-1{fill:url(#New_Gradient_Swatch_copy_11);}</style><linearGradient id="New_Gradient_Swatch_copy_11" x1="19.75977" y1="64" x2="108.23975" y2="64" gradientUnits="userSpaceOnUse"><stop offset="0" stop-color="#ffdc60"/><stop offset="1" stop-color="#fda76f"/></linearGradient></defs><title/><g id="beer"><path class="cls-1" d="M101.90186,82.52h-6.053l.0877-1.39941a6.65779,6.65779,0,0,0-2.10321-5.28754,6.6634,6.6634,0,0,0,.41523-2.30524c0-4.13428-3.812-7.49756-8.49805-7.49756a9.4244,9.4244,0,0,0-3.73145.75293c-.89258-3.30713-4.2915-5.75244-8.26416-5.75244a9.63753,9.63753,0,0,0-1.645.15521V59.14014A19.47172,19.47172,0,0,0,60.13135,41.1748a8.73672,8.73672,0,0,1-5.50147-7.99462v-11.52h3.75a2.0001,2.0001,0,0,0,2-2V12a2.0001,2.0001,0,0,0-2-2h-4.4497V4a2.0001,2.0001,0,0,0-2-2h-12a2.0001,2.0001,0,0,0-2,2v6h-4.44a2.0001,2.0001,0,0,0-2,2v7.66016a2.0001,2.0001,0,0,0,2,2H37.23v11.52a8.73086,8.73086,0,0,1-5.48975,7.99365A19.4163,19.4163,0,0,0,19.75977,59.14014v53.73A13.145,13.145,0,0,0,32.89014,126H64.98a1.97191,1.97191,0,0,0,.22437-.02264c.15441.01074.30859.02264.46557.02264H86.83984a6.69,6.69,0,0,0,6.67627-6.26416l.54712-8.72852h7.83863a6.34478,6.34478,0,0,0,6.33789-6.3374v-15.812A6.3452,6.3452,0,0,0,101.90186,82.52ZM78.23926,68.29688a2.00055,2.00055,0,0,0,1.19385,1.67285,4.64318,4.64318,0,0,1,1.125.69531,2.00112,2.00112,0,0,0,2.36377.15185,5.22411,5.22411,0,0,1,2.82861-.78662c2.48047,0,4.49805,1.56885,4.49805,3.49756,0,1.92822-2.01758,3.49707-4.49805,3.49707a5.09354,5.09354,0,0,1-3.29785-1.13379,1.996,1.996,0,0,0-2.36866-.15576,5.224,5.224,0,0,1-2.82861.78662,4.70813,4.70813,0,0,1-4.13525-2.12549,1.9999,1.9999,0,0,0-3.58692.20606,4.532,4.532,0,0,1-4.27343,2.42236,5.36463,5.36463,0,0,1-2.31348-.5083,2.00012,2.00012,0,0,0-2.86719,1.78174,2.57282,2.57282,0,1,1-2.57275-2.59814,2.37254,2.37254,0,0,1,.69433.09863,2.00043,2.00043,0,0,0,2.56885-2.08252c-.00537-.06152-.0083-.12647-.0083-.18848,0-1.92871,2.01807-3.49756,4.49854-3.49756a5.67,5.67,0,0,1,1.48632.19385,2.00019,2.00019,0,0,0,2.52344-1.83642c.08643-1.85108,2.09863-3.35694,4.48535-3.35694C76.12256,65.03076,78.09229,66.46533,78.23926,68.29688ZM81,79.7627l.01318-.00489A9.19314,9.19314,0,0,0,85,80.9762V95.00977a1.0013,1.0013,0,0,1-1,1H82a1.0013,1.0013,0,0,1-1-1ZM54.2998,84.06982c0,6.6167-3.75439,12-8.36962,12s-8.37012-5.3833-8.37012-12,3.75488-12,8.37012-12a7.25119,7.25119,0,0,1,5.70166,3.26276,6.55642,6.55642,0,0,0,2.66558,8.67084C54.29755,84.0257,54.2998,84.04755,54.2998,84.06982ZM41.93018,6h8v4h-8Zm-6.44,8H56.37988v3.66016H52.73157c-.03437-.00177-.06684-.01026-.10169-.01026H39.23c-.03485,0-.06732.00849-.10168.01026H35.49023ZM23.75977,112.87012v-16.186c4.37841-1.14282,7.58154-5.63226,7.58154-11.05469S28.13818,75.7179,23.75977,74.5752V59.14014a15.42729,15.42729,0,0,1,9.52148-14.27491A12.72028,12.72028,0,0,0,41.23,33.18018v-11.52h9.3999v11.52a12.72734,12.72734,0,0,0,7.96338,11.687,15.47155,15.47155,0,0,1,9.5166,14.273v3.79907a7.46032,7.46032,0,0,0-2.373,3.10229c-.15869-.00732-.31739-.01123-.477-.01123a8.38006,8.38006,0,0,0-8.24854,5.68848,6.51409,6.51409,0,0,0-2.56525.74573,10.98753,10.98753,0,0,0-8.5158-4.39466c-6.8208,0-12.37012,7.17774-12.37012,16s5.54932,16,12.37012,16c4.99328,0,9.29437-3.8543,11.24639-9.37683l1.81757,29.038a6.61163,6.61163,0,0,0,.555,2.269h-26.659A9.14039,9.14039,0,0,1,23.75977,112.87012Zm.00048-20.46192V78.85107a8.20608,8.20608,0,0,1,0,13.55713ZM86.83984,122H65.66992a2.6855,2.6855,0,0,1-2.68359-2.51514L60.7627,83.9563a6.63,6.63,0,0,0,2.77783-3.08569,9.65021,9.65021,0,0,0,1.71924.15429,9.086,9.086,0,0,0,6.27441-2.4414A9.09873,9.09873,0,0,0,77,80.5116V95.00977a5.00589,5.00589,0,0,0,5,5h2a5.00589,5.00589,0,0,0,5-5V80.4527a8.72755,8.72755,0,0,0,2.41046-1.34839,2.67806,2.67806,0,0,1,.53339,1.77118l-.21833,3.484c-.001.01233-.005.02368-.00579.03607l-1.00782,16.13678-1.188,18.95648A2.68546,2.68546,0,0,1,86.83984,122Zm17.39991-17.33008a2.34019,2.34019,0,0,1-2.33789,2.3374H94.31543l.39307-6.29516L95.59808,86.52h6.30378a2.34061,2.34061,0,0,1,2.33789,2.33789Z"/></g></svg>