<?xml version="1.0" encoding="UTF-8" standalone="no"?>
<!-- Created with Inkscape (http://www.inkscape.org/) -->

<svg
   width="23.65671mm"
   height="53.462055mm"
   viewBox="0 0 23.65671 53.462055"
   version="1.1"
   id="svg7428"
   inkscape:version="1.1.2 (0a00cf5339, 2022-02-04)"
   sodipodi:docname="plastic.svg"
   xmlns:inkscape="http://www.inkscape.org/namespaces/inkscape"
   xmlns:sodipodi="http://sodipodi.sourceforge.net/DTD/sodipodi-0.dtd"
   xmlns="http://www.w3.org/2000/svg"
   xmlns:svg="http://www.w3.org/2000/svg">
  <sodipodi:namedview
     id="namedview7430"
     pagecolor="#ffffff"
     bordercolor="#666666"
     borderopacity="1.0"
     inkscape:pageshadow="2"
     inkscape:pageopacity="0.0"
     inkscape:pagecheckerboard="0"
     inkscape:document-units="mm"
     showgrid="false"
     fit-margin-top="1"
     fit-margin-left="1"
     fit-margin-right="1"
     fit-margin-bottom="1"
     inkscape:zoom="0.75187991"
     inkscape:cx="45.884987"
     inkscape:cy="222.77494"
     inkscape:window-width="1850"
     inkscape:window-height="1016"
     inkscape:window-x="70"
     inkscape:window-y="27"
     inkscape:window-maximized="1"
     inkscape:current-layer="layer1" />
  <defs
     id="defs7425" />
  <g
     inkscape:label="Capa 1"
     inkscape:groupmode="layer"
     id="layer1"
     transform="translate(-93.175921,-90.057228)">
    <g
       id="g7241"
       transform="matrix(0.35277777,0,0,-0.35277777,-220.78513,388.49235)">
      <g
         id="g7039">
        <g
           id="g72"
           transform="translate(946.6921,725.6235)"
           style="stroke:#000000;stroke-opacity:1">
          <path
             d="m 0,0 h -46.389 c -2.75,0 -5,-2.25 -5,-5 v -15.877 c 0,-2.75 2.25,-5 5,-5 H 0 c 2.75,0 5,2.25 5,5 V -5 C 5,-2.25 2.75,0 0,0 Z"
             style="fill:none;stroke:#000000;stroke-width:5;stroke-linecap:round;stroke-linejoin:round;stroke-miterlimit:10;stroke-dasharray:none;stroke-opacity:1"
             id="path74" />
        </g>
        <g
           id="g76"
           transform="translate(946.6921,804.562)"
           style="stroke:#000000;stroke-opacity:1">
          <path
             d="m 0,0 h -46.389 c -2.75,0 -5,-2.25 -5,-5 v -23.877 c 0,-2.75 2.25,-5 5,-5 H 0 c 2.75,0 5,2.25 5,5 V -5 C 5,-2.25 2.75,0 0,0 Z"
             style="fill:none;stroke:#000000;stroke-width:5;stroke-linecap:round;stroke-linejoin:round;stroke-miterlimit:10;stroke-dasharray:none;stroke-opacity:1"
             id="path78" />
        </g>
        <g
           id="g80"
           transform="translate(947.882,740.6235)"
           style="stroke:#000000;stroke-opacity:1">
          <path
             d="m 0,0 h -48.769 c -2.095,0 -3.81,-2.25 -3.81,-5 v -4.877 c 0,-2.75 1.715,-5 3.81,-5 H 0 c 2.096,0 3.81,2.25 3.81,5 V -5 C 3.81,-2.25 2.096,0 0,0 Z"
             style="fill:none;stroke:#000000;stroke-width:5;stroke-linecap:round;stroke-linejoin:round;stroke-miterlimit:10;stroke-dasharray:none;stroke-opacity:1"
             id="path82" />
        </g>
        <g
           id="g84"
           transform="translate(947.882,755.5005)"
           style="stroke:#000000;stroke-opacity:1">
          <path
             d="m 0,0 h -48.769 c -2.095,0 -3.81,-2.25 -3.81,-5 v -4.877 c 0,-2.75 1.715,-5 3.81,-5 H 0 c 2.096,0 3.81,2.25 3.81,5 V -5 C 3.81,-2.25 2.096,0 0,0 Z"
             style="fill:none;stroke:#000000;stroke-width:5;stroke-linecap:round;stroke-linejoin:round;stroke-miterlimit:10;stroke-dasharray:none;stroke-opacity:1"
             id="path86" />
        </g>
        <g
           id="g88"
           transform="translate(947.882,770.3774)"
           style="stroke:#000000;stroke-opacity:1">
          <path
             d="m 0,0 h -48.769 c -2.095,0 -3.81,-2.25 -3.81,-5 v -4.877 c 0,-2.75 1.715,-5 3.81,-5 H 0 c 2.096,0 3.81,2.25 3.81,5 V -5 C 3.81,-2.25 2.096,0 0,0 Z"
             style="fill:none;stroke:#000000;stroke-width:5;stroke-linecap:round;stroke-linejoin:round;stroke-miterlimit:10;stroke-dasharray:none;stroke-opacity:1"
             id="path90" />
        </g>
        <g
           id="g92"
           transform="translate(928.831,826.2902)"
           style="stroke:#000000;stroke-opacity:1">
          <path
             d="m 0,0 h -10.667 c -2.75,0 -5,2.25 -5,5 v 4.333 c 0,2.75 2.25,5 5,5 H 0 c 2.75,0 5,-2.25 5,-5 V 5 C 5,2.25 2.75,0 0,0 Z"
             style="fill:none;stroke:#000000;stroke-width:5;stroke-linecap:round;stroke-linejoin:round;stroke-miterlimit:10;stroke-dasharray:none;stroke-opacity:1"
             id="path94" />
        </g>
        <g
           id="g96"
           transform="translate(897.6536,804.5)"
           style="stroke:#000000;stroke-opacity:1">
          <path
             d="M 0,0 17.399,22 H 33.554 L 51.496,0 Z"
             style="fill:none;stroke:#000000;stroke-width:5;stroke-linecap:round;stroke-linejoin:round;stroke-miterlimit:10;stroke-dasharray:none;stroke-opacity:1"
             id="path98" />
        </g>
      </g>
    </g>
  </g>
</svg>
