<?xml version="1.0" encoding="UTF-8"?>
<svg version="1.1" xmlns="http://www.w3.org/2000/svg" width="490" height="219">
<path d="M0 0 C161.7 0 323.4 0 490 0 C490 72.27 490 144.54 490 219 C328.3 219 166.6 219 0 219 C0 146.73 0 74.46 0 0 Z " fill="#FBFBFB" transform="translate(0,0)"/>
<path d="M0 0 C2.88244824 1.12721805 5.4495592 2.59363221 8.12524414 4.15039062 C8.6895665 4.477173 9.25388885 4.80395538 9.83531189 5.14064026 C11.63127345 6.18228585 13.42312297 7.23079395 15.21508789 8.27929688 C16.42382334 8.98089777 17.63280528 9.68207421 18.84204102 10.3828125 C27.5634692 15.44905108 27.5634692 15.44905108 31.15258789 17.84179688 C31.58127458 20.65467051 31.81265472 23.23936676 31.90258789 26.06835938 C31.94246826 27.30082901 31.94246826 27.30082901 31.9831543 28.55819702 C32.0290741 30.30143596 32.06542755 32.04494886 32.09301758 33.78857422 C32.13251169 35.56419068 32.20057474 37.33941674 32.2980957 39.11279297 C32.93854142 50.78241094 32.93854142 50.78241094 31.15258789 55.84179688 C27.36259565 59.84805066 23.17756575 61.71176778 18.15258789 63.84179688 C16.52796947 64.80956314 14.92039643 65.80715535 13.34008789 66.84570312 C11.94482544 67.69950134 10.54901144 68.55239902 9.15258789 69.40429688 C8.44231445 69.85353516 7.73204102 70.30277344 7.00024414 70.765625 C5.9619043 71.39307617 5.9619043 71.39307617 4.90258789 72.03320312 C3.99766602 72.59309937 3.99766602 72.59309937 3.07446289 73.16430664 C0.35601661 74.12260039 -1.10180373 73.7033863 -3.84741211 72.84179688 C-6.0058405 71.72606399 -8.12291835 70.52876233 -10.20678711 69.27929688 C-11.09155731 68.75227173 -11.09155731 68.75227173 -11.99420166 68.21459961 C-13.86608246 67.09709217 -15.7316305 65.9694512 -17.59741211 64.84179688 C-18.8665643 64.08334971 -20.13609193 63.32553042 -21.40600586 62.56835938 C-30.65394856 57.03526042 -30.65394856 57.03526042 -31.84741211 55.84179688 C-36.16108595 24.18239017 -36.16108595 24.18239017 -29.81274414 14.85107422 C-24.72381758 10.42888638 -18.89189373 8.00117008 -12.55444336 5.86474609 C-9.18804084 4.5926297 -6.47091998 2.80524996 -3.58374023 0.68188477 C-1.84741211 -0.15820312 -1.84741211 -0.15820312 0 0 Z " fill="#F23B3A" transform="translate(418.847412109375,29.158203125)"/>
<path d="M0 0 C8.26427213 -0.10000464 16.44535784 0.14358856 24.6875 0.75 C26.28174805 0.8428125 26.28174805 0.8428125 27.90820312 0.9375 C38.82424049 1.74559654 47.99759721 5.52532694 55.5390625 13.66015625 C62.0842018 22.06166547 62.22532157 33.7831281 61 44 C59.06849953 50.87234767 55.09630242 56.25112438 49 60 C43.9906729 62.51664758 40.21648566 63.38622141 34.625 63.3125 C33.9225415 63.30412109 33.22008301 63.29574219 32.49633789 63.28710938 C21.64253508 63.05639829 10.80660776 61.97969488 0 61 C1.5 58 1.5 58 3 55 C3.10534545 53.38747294 3.14872872 51.77070202 3.16113281 50.15478516 C3.17074036 49.14678864 3.1803479 48.13879211 3.19024658 47.10025024 C3.19449646 46.00755829 3.19874634 44.91486633 3.203125 43.7890625 C3.20882507 42.6693808 3.21452515 41.5496991 3.22039795 40.39608765 C3.22985665 38.0238337 3.23638537 35.65156656 3.24023438 33.27929688 C3.24994147 29.6469027 3.28095798 26.01507382 3.3125 22.3828125 C3.3190297 20.08073254 3.3242803 17.77864851 3.328125 15.4765625 C3.3404718 14.38791901 3.3528186 13.29927551 3.36553955 12.17764282 C3.3610379 10.65619156 3.3610379 10.65619156 3.35644531 9.10400391 C3.36009094 8.21290924 3.36373657 7.32181458 3.36749268 6.40371704 C2.9296212 3.53966231 1.89144772 2.15163799 0 0 Z " fill="#080808" transform="translate(393,112)"/>
<path d="M0 0 C40.76315789 0 40.76315789 0 50 9 C51.55010133 12.10020266 51.30795676 15.34907903 51.375 18.75 C51.43107422 19.80574219 51.43107422 19.80574219 51.48828125 20.8828125 C51.55519287 24.88264024 51.172299 27.29610348 48.62109375 30.4609375 C45.21341313 33.7619694 45.21341313 33.7619694 42 34 C42.804375 34.804375 43.60875 35.60875 44.4375 36.4375 C48 40 48 40 48.11352539 43.05102539 C48.11336634 44.39991271 48.10767612 45.74880614 48.09765625 47.09765625 C48.0962413 47.80651474 48.09482635 48.51537323 48.09336853 49.24571228 C48.08775443 51.51801712 48.07519963 53.79022475 48.0625 56.0625 C48.05748681 57.59960796 48.05292359 59.13671745 48.04882812 60.67382812 C48.03778042 64.44925642 48.02050641 68.22461171 48 72 C44.32612505 72.85298376 40.9552607 73.10789471 37.1875 73.0625 C35.72376953 73.04896484 35.72376953 73.04896484 34.23046875 73.03515625 C33.49441406 73.02355469 32.75835937 73.01195313 32 73 C31.98018066 72.16227051 31.96036133 71.32454102 31.93994141 70.46142578 C31.86189388 67.35634166 31.77520365 64.25165461 31.68261719 61.14697266 C31.62545964 59.14113029 31.57831404 57.13501082 31.53125 55.12890625 C31.49257813 53.87207031 31.45390625 52.61523438 31.4140625 51.3203125 C31.3826416 50.15773926 31.3512207 48.99516602 31.31884766 47.79736328 C31.27842131 44.86343518 31.27842131 44.86343518 29 43 C25.04 42.67 21.08 42.34 17 42 C17 52.89 17 63.78 17 75 C6 77 6 77 0 77 C0 51.59 0 26.18 0 0 Z " fill="#080808" transform="translate(20,30)"/>
<path d="M0 0 C1.65 0 3.3 0 5 0 C5.33209473 0.83809204 5.33209473 0.83809204 5.67089844 1.69311523 C6.69536481 4.27533551 7.7226677 6.85641866 8.75 9.4375 C9.09804687 10.31599609 9.44609375 11.19449219 9.8046875 12.09960938 C12.07423421 17.79449047 14.46466272 23.41833383 17 29 C21.27950943 20.14685678 24.84714139 11.3051181 28 2 C27.34 2 26.68 2 26 2 C26 1.34 26 0.68 26 0 C33.59 0 41.18 0 49 0 C48 3 48 3 46.125 4.25 C43.71499682 6.2347085 43.01231006 8.0794823 41.85037231 10.92163086 C40.95258552 13.11588428 40.00232766 15.28109837 39.03881836 17.44726562 C38.6851268 18.2449939 38.33143524 19.04272217 37.96702576 19.86462402 C37.59505569 20.7033606 37.22308563 21.54209717 36.83984375 22.40625 C35.62373821 25.15748123 34.40842543 27.90906189 33.19311523 30.66064453 C32.3557453 32.554211 31.51687654 34.44711536 30.67651367 36.33935547 C29.45587177 39.08896173 28.24109696 41.84109721 27.02734375 44.59375 C26.65334946 45.43248657 26.27935516 46.27122314 25.89402771 47.13537598 C23.88568986 51.70578343 22.24285371 56.16321075 21 61 C19.02 61 17.04 61 15 61 C11.44202033 53.64684201 8.31214803 46.48513136 5.95703125 38.65625 C4.94407089 35.84476818 3.61311024 33.50827283 2 31 C-1.33436056 38.20892478 -4.19963654 45.56970229 -7 53 C-7.32484375 53.86109375 -7.6496875 54.7221875 -7.984375 55.609375 C-8.65935811 57.40508477 -9.33027678 59.20232189 -10 61 C-11.98 61 -13.96 61 -16 61 C-18.63786835 55.0798671 -21.26985185 49.15714288 -23.89794922 43.23266602 C-24.7908331 41.22166193 -25.68501387 39.2112331 -26.58056641 37.20141602 C-27.87491991 34.29597479 -29.16444152 31.38842854 -30.453125 28.48046875 C-30.84808167 27.59667038 -31.24303833 26.71287201 -31.64996338 25.80229187 C-34.0483382 20.37531907 -36.12666531 14.93057717 -37.96746826 9.28804016 C-39.55419048 5.77194082 -41.64958287 4.75135441 -45 3 C-45 2.34 -45 1.68 -45 1 C-37.41 1 -29.82 1 -22 1 C-22 3.31 -22 5.62 -22 8 C-21.32812211 10.49052767 -21.32812211 10.49052767 -20.25 12.734375 C-19.8890625 13.55550781 -19.528125 14.37664062 -19.15625 15.22265625 C-18.7746875 16.05667969 -18.393125 16.89070313 -18 17.75 C-17.24531455 19.43019497 -16.49510349 21.1124089 -15.75 22.796875 C-15.41484375 23.53260742 -15.0796875 24.26833984 -14.734375 25.02636719 C-14 27 -14 27 -14 30 C-13.34 30 -12.68 30 -12 30 C-11.60167969 28.74316406 -11.20335937 27.48632812 -10.79296875 26.19140625 C-8.94120045 20.63610136 -6.65291682 15.30142181 -4.3125 9.9375 C-3.89677734 8.97650391 -3.48105469 8.01550781 -3.05273438 7.02539062 C-2.03848513 4.68212514 -1.02085998 2.34039113 0 0 Z " fill="#090909" transform="translate(196,107)"/>
<path d="M0 0 C4.00097898 -0.0774383 7.99897744 -0.05349899 12 0 C12.88461914 0.01111816 13.76923828 0.02223633 14.68066406 0.03369141 C17.68387887 0.08339356 20.68512209 0.16391633 23.6875 0.25 C25.14748413 0.27114868 25.14748413 0.27114868 26.63696289 0.29272461 C34.57242466 0.56296836 40.95737812 2.6099607 47.4375 7.25 C52.20738547 12.36890148 52.47831732 18.85877673 52.3125 25.60546875 C51.61282044 30.96676341 49.1418718 34.10933999 44.875 37.4375 C42 39 42 39 40 39 C40.66 39.9075 41.32 40.815 42 41.75 C44 45 44 45 44 49 C44.66 49 45.32 49 46 49 C47.65625 51.30078125 47.65625 51.30078125 49.5 54.3125 C50.1084375 55.29863281 50.716875 56.28476563 51.34375 57.30078125 C51.8903125 58.19152344 52.436875 59.08226562 53 60 C53.66 60.99 54.32 61.98 55 63 C39.60188238 64.2223423 39.60188238 64.2223423 35.7578125 61.2890625 C34.07008226 58.52278276 33 56.26468494 33 53 C32.34 53 31.68 53 31 53 C30.73445313 52.39671875 30.46890625 51.7934375 30.1953125 51.171875 C29.84210938 50.37265625 29.48890625 49.5734375 29.125 48.75 C28.77695312 47.96109375 28.42890625 47.1721875 28.0703125 46.359375 C27.71710938 45.58078125 27.36390625 44.8021875 27 44 C26.74992187 43.26265625 26.49984375 42.5253125 26.2421875 41.765625 C25.04166692 39.64589799 25.04166692 39.64589799 21.875 39.25 C20.92625 39.1675 19.9775 39.085 19 39 C19.0868803 41.9389507 19.19373767 44.87481289 19.3125 47.8125 C19.33505859 48.64587891 19.35761719 49.47925781 19.38085938 50.33789062 C19.4340332 51.54155273 19.4340332 51.54155273 19.48828125 52.76953125 C19.52755737 53.87711792 19.52755737 53.87711792 19.56762695 55.00708008 C20.10437993 57.48111426 21.17691227 58.31031633 23 60 C23 60.66 23 61.32 23 62 C15.74 62 8.48 62 1 62 C2 58 2 58 4 56 C4.31980904 53.7583169 4.31980904 53.7583169 4.29052734 51.13891602 C4.30328705 50.1276918 4.31604675 49.11646759 4.32919312 48.07460022 C4.33141876 46.97877121 4.33364441 45.8829422 4.3359375 44.75390625 C4.3425943 43.63185287 4.3492511 42.5097995 4.35610962 41.35374451 C4.36624899 38.97730147 4.37092624 36.60082988 4.37060547 34.22436523 C4.37497811 30.5807422 4.41128454 26.93833035 4.44921875 23.29492188 C4.4550866 20.98958749 4.4590562 18.68424733 4.4609375 16.37890625 C4.47530853 15.28510147 4.48967957 14.19129669 4.50448608 13.06434631 C4.49833282 12.04996994 4.49217957 11.03559357 4.48583984 9.99047852 C4.48868988 9.09716324 4.49153992 8.20384796 4.49447632 7.28346252 C3.84191065 4.26995267 2.49694192 3.6646344 0 2 C0 1.34 0 0.68 0 0 Z " fill="#080808" transform="translate(326,108)"/>
<path d="M0 0 C4.59912244 4.41392288 5.12433314 9.31008791 5.375 15.4375 C5.22785427 21.49806464 3.56749518 25.66237748 -0.375 30.3125 C-2.73253373 32.26752797 -3.94858521 33.10539836 -6.9375 33.4375 C-6.67073796 35.42241642 -6.67073796 35.42241642 -5.9375 37.4375 C-4.9475 37.7675 -3.9575 38.0975 -2.9375 38.4375 C-1.06992265 41.36278111 0.51519356 44.39563108 2.1484375 47.45703125 C4.13193735 50.54562387 6.17409503 52.22901166 9.0625 54.4375 C9.0625 55.0975 9.0625 55.7575 9.0625 56.4375 C2.72008005 57.59066726 -3.50438704 57.53257063 -9.9375 57.4375 C-10.31261719 56.74785156 -10.68773437 56.05820313 -11.07421875 55.34765625 C-12.14107644 53.38861531 -13.21436615 51.43306783 -14.29296875 49.48046875 C-15.31573173 47.58799283 -16.30439793 45.67615926 -17.23828125 43.73828125 C-17.63402344 42.93777344 -18.02976562 42.13726562 -18.4375 41.3125 C-18.7778125 40.58804688 -19.118125 39.86359375 -19.46875 39.1171875 C-21.6239537 36.65245987 -23.77821551 36.72391865 -26.9375 36.4375 C-26.8506197 39.3764507 -26.74376233 42.31231289 -26.625 45.25 C-26.60244141 46.08337891 -26.57988281 46.91675781 -26.55664062 47.77539062 C-26.5034668 48.97905273 -26.5034668 48.97905273 -26.44921875 50.20703125 C-26.40994263 51.31461792 -26.40994263 51.31461792 -26.36987305 52.44458008 C-25.83312007 54.91861426 -24.76058773 55.74781633 -22.9375 57.4375 C-22.9375 58.0975 -22.9375 58.7575 -22.9375 59.4375 C-33.8275 59.9325 -33.8275 59.9325 -44.9375 60.4375 C-42.9375 56.4375 -42.9375 56.4375 -41.9375 55.4375 C-41.84416295 53.84139018 -41.82004628 52.24116572 -41.82397461 50.64233398 C-41.82405014 49.62135117 -41.82412567 48.60036835 -41.82420349 47.54844666 C-41.82936478 46.4380452 -41.83452606 45.32764374 -41.83984375 44.18359375 C-41.84196617 42.48771873 -41.84196617 42.48771873 -41.84413147 40.75758362 C-41.84974981 37.13002935 -41.86230542 33.50253576 -41.875 29.875 C-41.88001264 27.42252693 -41.88457595 24.9700529 -41.88867188 22.51757812 C-41.8997252 16.49086455 -41.91648116 10.46418661 -41.9375 4.4375 C-43.2575 3.7775 -44.5775 3.1175 -45.9375 2.4375 C-45.6075 1.4475 -45.2775 0.4575 -44.9375 -0.5625 C-6.55439888 -4.3891064 -6.55439888 -4.3891064 0 0 Z " fill="#060606" transform="translate(65.9375,116.5625)"/>
<path d="M0 0 C6.93 0 13.86 0 21 0 C21.63808594 1.53785156 22.27617187 3.07570313 22.93359375 4.66015625 C26.54076861 13.31153124 30.18017431 21.94907159 33.84790039 30.57495117 C34.66241395 32.49458363 35.47390442 34.41550142 36.2824707 36.33764648 C37.46337915 39.14370195 38.65444487 41.94525159 39.84765625 44.74609375 C40.20505386 45.6013414 40.56245148 46.45658905 40.93067932 47.3377533 C44.01611803 54.85552771 44.01611803 54.85552771 50 60 C50 60.66 50 61.32 50 62 C42.41 62 34.82 62 27 62 C27 59.3493418 27.36825703 57.52697187 28 55 C28 54.01 28 53.02 28 52 C18.1 52 8.2 52 -2 52 C-1.67 53.98 -1.34 55.96 -1 58 C-0.34 58.33 0.32 58.66 1 59 C1 59.66 1 60.32 1 61 C-6.92 61 -14.84 61 -23 61 C-22 58 -22 58 -20.07963562 56.10656738 C-17.8915576 53.89015325 -16.92852033 52.14581114 -15.72583008 49.29492188 C-15.32894485 48.36715942 -14.93205963 47.43939697 -14.52314758 46.48352051 C-13.9026075 44.99120911 -13.9026075 44.99120911 -13.26953125 43.46875 C-12.83364182 42.44068237 -12.39775238 41.41261475 -11.94865417 40.35339355 C-11.03063692 38.18331561 -10.11727187 36.01126452 -9.20825195 33.83740234 C-7.81602971 30.50843993 -6.41031905 27.18544168 -5.00195312 23.86328125 C-4.11118782 21.75293801 -3.22118774 19.64227159 -2.33203125 17.53125 C-1.91226517 16.53637573 -1.49249908 15.54150146 -1.06001282 14.51647949 C-0.67258408 13.58871704 -0.28515533 12.66095459 0.11401367 11.70507812 C0.45502609 10.89107544 0.79603851 10.07707275 1.14738464 9.23840332 C1.93481575 7.17113066 2.51698757 5.15632269 3 3 C2.01 2.67 1.02 2.34 0 2 C0 1.34 0 0.68 0 0 Z " fill="#0A0A0A" transform="translate(266,107)"/>
<path d="M0 0 C0 5.28 0 10.56 0 16 C-2.475 15.01 -2.475 15.01 -5 14 C-8.19134154 13.72635763 -8.19134154 13.72635763 -11.61328125 13.8046875 C-12.86044922 13.81113281 -14.10761719 13.81757812 -15.39257812 13.82421875 C-16.68615234 13.84097656 -17.97972656 13.85773438 -19.3125 13.875 C-20.62541016 13.88402344 -21.93832031 13.89304687 -23.29101562 13.90234375 C-26.52752913 13.92588203 -29.76367149 13.9587648 -33 14 C-33 17.63 -33 21.26 -33 25 C-30.37251369 24.94014838 -27.75083005 24.85323776 -25.125 24.75 C-24.37863281 24.73582031 -23.63226563 24.72164062 -22.86328125 24.70703125 C-20.42861619 24.64013659 -20.42861619 24.64013659 -17 24 C-15.39662601 22.09371218 -15.39662601 22.09371218 -15 20 C-14.34 20 -13.68 20 -13 20 C-13 26.93 -13 33.86 -13 41 C-17 39 -17 39 -18 38 C-20.52596259 37.76346477 -23.03107207 37.57826308 -25.5625 37.4375 C-26.27341797 37.39431641 -26.98433594 37.35113281 -27.71679688 37.30664062 C-29.47761912 37.20028223 -31.2387832 37.09961154 -33 37 C-33 40.96 -33 44.92 -33 49 C-30.525 48.505 -30.525 48.505 -28 48 C-26.2089065 47.89199604 -24.41510795 47.82361459 -22.62109375 47.7890625 C-21.61755859 47.76070312 -20.61402344 47.73234375 -19.58007812 47.703125 C-17.48130142 47.65094907 -15.38231282 47.60670573 -13.28320312 47.5703125 C-12.28095703 47.539375 -11.27871094 47.5084375 -10.24609375 47.4765625 C-9.33529053 47.45674316 -8.4244873 47.43692383 -7.48608398 47.41650391 C-4.58143344 46.92987582 -3.24899144 45.83988947 -1 44 C-0.34 44 0.32 44 1 44 C1 49.61 1 55.22 1 61 C-4.95893806 61.28756475 -10.91800246 61.57229789 -16.87719727 61.85449219 C-18.9013223 61.95073299 -20.92541172 62.04772598 -22.94946289 62.14550781 C-25.87116434 62.28652074 -28.7929863 62.42476188 -31.71484375 62.5625 C-32.60896469 62.60624756 -33.50308563 62.64999512 -34.42430115 62.69506836 C-39.95638731 62.95257803 -45.46185223 63.03926024 -51 63 C-49.125 59.125 -49.125 59.125 -48 58 C-47.89096094 56.38437614 -47.85094366 54.76402958 -47.83886719 53.14477539 C-47.82925964 52.1102272 -47.8196521 51.07567902 -47.80975342 50.00978088 C-47.80550354 48.88377975 -47.80125366 47.75777863 -47.796875 46.59765625 C-47.79117493 45.44962021 -47.78547485 44.30158417 -47.77960205 43.11875916 C-47.77013573 40.68505785 -47.76361162 38.25134363 -47.75976562 35.81762695 C-47.75005063 32.08196841 -47.71903801 28.34685759 -47.6875 24.61132812 C-47.68097139 22.25260745 -47.67572036 19.89388282 -47.671875 17.53515625 C-47.6595282 16.41117935 -47.6471814 15.28720245 -47.63446045 14.12916565 C-47.63746155 13.0914653 -47.64046265 12.05376495 -47.64355469 10.98461914 C-47.63990906 10.06830215 -47.63626343 9.15198517 -47.63250732 8.207901 C-47.75377991 7.47929367 -47.87505249 6.75068634 -48 6 C-48.99 5.34 -49.98 4.68 -51 4 C-51 3.34 -51 2.68 -51 2 C-46.46956493 1.70828948 -41.93873971 1.42388898 -37.4074707 1.14550781 C-35.8744752 1.05038389 -34.34159039 0.95345443 -32.80883789 0.85449219 C-21.84817416 0.1485145 -10.98514162 -0.09314376 0 0 Z " fill="#060606" transform="translate(139,109)"/>
<path d="M0 0 C13.2 0 26.4 0 40 0 C40 3.3 40 6.6 40 10 C32.08 10 24.16 10 16 10 C16.33 15.94 16.66 21.88 17 28 C21.95 28.33 26.9 28.66 32 29 C32 32.3 32 35.6 32 39 C26.72 39 21.44 39 16 39 C16.33 47.25 16.66 55.5 17 64 C24.19477326 64.61808556 24.19477326 64.61808556 31.39038086 65.22631836 C32.28120361 65.30503174 33.17202637 65.38374512 34.08984375 65.46484375 C35.00628662 65.543396 35.92272949 65.62194824 36.86694336 65.70288086 C39 66 39 66 40 67 C40.07205511 68.68608966 40.08386068 70.37500659 40.0625 72.0625 C40.05347656 72.98160156 40.04445313 73.90070313 40.03515625 74.84765625 C40.02355469 75.55792969 40.01195312 76.26820312 40 77 C35.77018426 76.71731542 31.54132229 76.4221485 27.3125 76.125 C26.13365234 76.04636719 24.95480469 75.96773438 23.74023438 75.88671875 C22.56396484 75.80292969 21.38769531 75.71914062 20.17578125 75.6328125 C19.11270752 75.55949707 18.04963379 75.48618164 16.9543457 75.41064453 C11.27658951 74.82103004 5.64191105 73.86798632 0 73 C0 48.91 0 24.82 0 0 Z " fill="#050505" transform="translate(348,30)"/>
<path d="M0 0 C13.2 0 26.4 0 40 0 C40 2.97 40 5.94 40 9 C32.41 9 24.82 9 17 9 C17 14.61 17 20.22 17 26 C21.95 26 26.9 26 32 26 C32 29.3 32 32.6 32 36 C27.05 36 22.1 36 17 36 C17 43.92 17 51.84 17 60 C22.445 59.505 22.445 59.505 28 59 C30.22848762 58.94116981 32.45839024 58.91127518 34.6875 58.9375 C36.20923828 58.95103516 36.20923828 58.95103516 37.76171875 58.96484375 C38.50035156 58.97644531 39.23898438 58.98804688 40 59 C40 61.97 40 64.94 40 68 C20.2 69.485 20.2 69.485 0 71 C0 47.57 0 24.14 0 0 Z " fill="#080808" transform="translate(82,30)"/>
<path d="M0 0 C3.00077253 2.54926741 3.00077253 2.54926741 4.0625 4.74609375 C4.0625 7.38609375 4.0625 10.02609375 4.0625 12.74609375 C-1.2175 12.74609375 -6.4975 12.74609375 -11.9375 12.74609375 C-12.5975 10.43609375 -13.2575 8.12609375 -13.9375 5.74609375 C-15.39573212 5.71908945 -16.85410675 5.69969588 -18.3125 5.68359375 C-19.53066406 5.66619141 -19.53066406 5.66619141 -20.7734375 5.6484375 C-22.98687142 5.60143041 -22.98687142 5.60143041 -24.9375 6.74609375 C-25.03880235 13.09971521 -25.10892368 19.45312898 -25.15722656 25.80737305 C-25.17735958 27.96956159 -25.20466833 30.13169558 -25.23925781 32.29370117 C-25.28770117 35.39906259 -25.31045172 38.50370511 -25.328125 41.609375 C-25.34877014 42.57821121 -25.36941528 43.54704742 -25.39068604 44.54524231 C-25.39113922 45.89630318 -25.39113922 45.89630318 -25.39160156 47.2746582 C-25.40048401 48.06741653 -25.40936646 48.86017487 -25.41851807 49.67695618 C-25.09662069 51.91357094 -25.09662069 51.91357094 -23.10443115 53.50993347 C-20.23915971 55.14447305 -18.18524594 55.02850644 -14.9375 54.74609375 C-13.9475 54.25109375 -13.9475 54.25109375 -12.9375 53.74609375 C-12.47226937 51.85076033 -12.47226937 51.85076033 -12.3125 49.68359375 C-12.18875 48.38421875 -12.065 47.08484375 -11.9375 45.74609375 C-6.6575 46.07609375 -1.3775 46.40609375 4.0625 46.74609375 C4.79376143 55.88686157 4.79376143 55.88686157 1.5625 59.68359375 C-6.88072662 65.18241571 -15.02318129 65.68101914 -24.9375 64.74609375 C-31.00860635 63.31802893 -36.45805152 61.22554223 -40.9375 56.74609375 C-42.15613106 54.30883164 -42.1038336 52.65772437 -42.16210938 49.93261719 C-42.18462769 48.93107605 -42.207146 47.92953491 -42.23034668 46.89764404 C-42.30127646 42.31025643 -42.35887156 37.72303267 -42.39746094 33.13525391 C-42.42407707 30.7161073 -42.46501158 28.29707439 -42.52050781 25.87841797 C-42.59960182 22.3911348 -42.632764 18.90601716 -42.65625 15.41796875 C-42.68924194 14.33964783 -42.72223389 13.2613269 -42.75622559 12.15032959 C-42.73673414 4.82634551 -42.73673414 4.82634551 -40.45158386 1.73771667 C-30.51312103 -7.08458071 -11.04598866 -7.14871443 0 0 Z " fill="#070707" transform="translate(284.9375,33.25390625)"/>
<path d="M0 0 C0.68191406 -0.00386719 1.36382812 -0.00773437 2.06640625 -0.01171875 C10.20617059 0.00378556 15.92480741 0.80721554 22.3671875 6.0703125 C24.37570336 8.41804437 24.69834915 9.51389016 24.6875 12.5625 C24.4090625 14.3259375 24.4090625 14.3259375 24.125 16.125 C19.175 16.125 14.225 16.125 9.125 16.125 C8.795 14.475 8.465 12.825 8.125 11.125 C5.48041621 9.80270811 3.44738699 10.02822806 0.5 10.0625 C-1.00433594 10.07603516 -1.00433594 10.07603516 -2.5390625 10.08984375 C-3.69535156 10.10724609 -3.69535156 10.10724609 -4.875 10.125 C-4.90026945 16.8002034 -4.91783268 23.47539457 -4.92993164 30.15063477 C-4.93497325 32.42342591 -4.94180637 34.6962138 -4.95043945 36.96899414 C-4.96251261 40.22803551 -4.96822987 43.48703417 -4.97265625 46.74609375 C-4.97781754 47.76900009 -4.98297882 48.79190643 -4.98829651 49.84580994 C-4.98837204 50.78670975 -4.98844757 51.72760956 -4.98852539 52.69702148 C-4.99185631 53.94611549 -4.99185631 53.94611549 -4.99525452 55.22044373 C-5.08504832 57.13533274 -5.08504832 57.13533274 -3.875 58.125 C-2.02212498 58.19726502 -0.16666122 58.2088122 1.6875 58.1875 C2.69941406 58.17847656 3.71132812 58.16945312 4.75390625 58.16015625 C5.53636719 58.14855469 6.31882813 58.13695312 7.125 58.125 C7.455 55.155 7.785 52.185 8.125 49.125 C13.735 49.125 19.345 49.125 25.125 49.125 C25.125 57.125 25.125 57.125 24.125 59.125 C23.465 59.125 22.805 59.125 22.125 59.125 C21.74601562 60.04732422 21.74601562 60.04732422 21.359375 60.98828125 C19.93092946 63.46093855 18.92380488 64.10231163 16.375 65.3125 C15.72015625 65.63605469 15.0653125 65.95960937 14.390625 66.29296875 C6.33058942 69.25294733 -5.36731323 69.68757406 -13.65625 67.3359375 C-16.83919416 65.78009539 -19.67319115 63.90295881 -21.875 61.125 C-22.26268005 58.82376099 -22.26268005 58.82376099 -22.27905273 56.09033203 C-22.29173691 55.06561798 -22.30442108 54.04090393 -22.31748962 52.98513794 C-22.31455399 51.87887054 -22.31161835 50.77260315 -22.30859375 49.6328125 C-22.3138356 48.49472137 -22.31907745 47.35663025 -22.32447815 46.18405151 C-22.33090596 43.7748903 -22.3295516 41.36569774 -22.32104492 38.95654297 C-22.31254897 35.2712398 -22.3412656 31.58749314 -22.37304688 27.90234375 C-22.37465929 25.56250046 -22.37408059 23.22265443 -22.37109375 20.8828125 C-22.38232773 19.78059357 -22.39356171 18.67837463 -22.40513611 17.54275513 C-22.33551628 9.89115067 -22.33551628 9.89115067 -19.99633789 5.99951172 C-13.75298771 0.48260037 -8.10263699 -0.04543535 0 0 Z " fill="#070707" transform="translate(152.875,28.875)"/>
<path d="M0 0 C5.28 0 10.56 0 16 0 C25 17.5 25 17.5 25 22 C25.66 22 26.32 22 27 22 C27 21.34 27 20.68 27 20 C27.66 20 28.32 20 29 20 C29.10183594 18.98808594 29.20367187 17.97617187 29.30859375 16.93359375 C30.39986346 10.72507062 33.25846302 5.65806567 36 0 C41.61 0 47.22 0 53 0 C51.56464123 4.30607632 50.33575534 7.22448825 48.0859375 10.98828125 C46.01512882 14.82449157 44.54022418 18.92823715 43 23 C42.34 23 41.68 23 41 23 C40.731875 23.86625 40.46375 24.7325 40.1875 25.625 C39 29 39 29 37.45776367 31.76416016 C35.79625658 35.45225512 35.57441067 38.11758079 35.48828125 42.1484375 C35.47033005 42.80582916 35.45237885 43.46322083 35.43388367 44.14053345 C35.38015563 46.21862572 35.34600875 48.29649347 35.3125 50.375 C35.27929347 51.79299976 35.24480076 53.21097001 35.20898438 54.62890625 C35.12205254 58.08596299 35.06167345 61.54203353 35 65 C29.39 65 23.78 65 18 65 C17.99613281 61.96039063 17.99613281 61.96039063 17.9921875 58.859375 C17.96432792 56.85348553 17.93624454 54.84759334 17.90234375 52.84179688 C17.88439669 51.46884688 17.87657582 50.09571956 17.87988281 48.72265625 C17.89306884 39.70341607 16.83059507 33.12529575 12.28173828 25.26660156 C11 23 11 23 11 21 C10.34 21 9.68 21 9 21 C7.86722732 18.81623234 6.74377211 16.62842872 5.625 14.4375 C5.14933594 13.52387695 5.14933594 13.52387695 4.6640625 12.59179688 C4.3546875 11.98271484 4.0453125 11.37363281 3.7265625 10.74609375 C3.30238037 9.92129517 3.30238037 9.92129517 2.86962891 9.07983398 C1.64515858 6.15134922 0.87201136 3.05203977 0 0 Z " fill="#080808" transform="translate(184,30)"/>
<path d="M0 0 C5.61 0 11.22 0 17 0 C17 20.13 17 40.26 17 61 C20.3 61 23.6 61 27 61 C29.04418858 61.13218771 31.08723191 61.29099814 33.125 61.5 C34.52105469 61.63921875 34.52105469 61.63921875 35.9453125 61.78125 C36.62335938 61.8534375 37.30140625 61.925625 38 62 C38 64.97 38 67.94 38 71 C35.22887102 71.05585702 32.45894712 71.09452061 29.6875 71.125 C28.94048828 71.14175781 28.19347656 71.15851563 27.42382812 71.17578125 C18.09051685 71.25135462 9.48390818 69.99830612 0 69 C0 46.23 0 23.46 0 0 Z " fill="#0A0A0A" transform="translate(299,30)"/>
<path d="M0 0 C18.88888889 1.11111111 18.88888889 1.11111111 23.75 4.55078125 C25.26073786 6.30229296 25.48621792 7.7751401 26 10 C26.66 10.33 27.32 10.66 28 11 C28.1358035 13.71003427 28.23444624 16.41318941 28.3125 19.125 C28.35439453 19.88554687 28.39628906 20.64609375 28.43945312 21.4296875 C28.5272512 25.5035184 28.31460694 28.17353482 25.73046875 31.4296875 C22.82914084 34.16083738 20.83479659 35.88710825 16.80175781 36.13525391 C16.02670898 36.08288574 15.25166016 36.03051758 14.453125 35.9765625 C13.69161133 35.93096191 12.93009766 35.88536133 12.14550781 35.83837891 C11.18999023 35.76796387 10.23447266 35.69754883 9.25 35.625 C6.1975 35.41875 3.145 35.2125 0 35 C0 23.45 0 11.9 0 0 Z " fill="#F9F9F9" transform="translate(412,126)"/>
<path d="M0 0 C1.98783439 2.54442801 2.25560384 4.64513286 2.046875 7.83984375 C0.12095653 16.42881885 -9.06597022 22.16058605 -15.48828125 27.4609375 C-18.42986499 29.66302227 -18.42986499 29.66302227 -19.4375 32 C-12.45306007 33.42415912 -5.45444482 34.74602127 1.5625 36 C1.5625 38.97 1.5625 41.94 1.5625 45 C-6.09753724 43.65403209 -13.1826572 41.55117069 -20.5 38.9375 C-22.06524414 38.39125977 -22.06524414 38.39125977 -23.66210938 37.83398438 C-31.29295303 35.14454697 -31.29295303 35.14454697 -32.4375 34 C-33.125 30.9375 -33.125 30.9375 -32.4375 27 C-29.44717993 23.87912542 -25.95251481 21.49713502 -22.4375 19 C-20.5716782 17.59871934 -18.71689525 16.1825852 -16.875 14.75 C-16.04871094 14.12609375 -15.22242188 13.5021875 -14.37109375 12.859375 C-12.30437363 10.87198353 -11.79080306 9.80163128 -11.4375 7 C-15.51714281 8.30155006 -15.51714281 8.30155006 -19.4375 10 C-19.68242187 10.65484375 -19.92734375 11.3096875 -20.1796875 11.984375 C-21.4375 14 -21.4375 14 -24.2578125 14.828125 C-25.34835937 14.96734375 -26.43890625 15.1065625 -27.5625 15.25 C-28.65820312 15.39953125 -29.75390625 15.5490625 -30.8828125 15.703125 C-32.14738281 15.85007812 -32.14738281 15.85007812 -33.4375 16 C-33.09574944 13.15528758 -32.86838901 11.45667788 -30.87109375 9.33984375 C-22.37049241 3.36779702 -10.70325725 -4.3910799 0 0 Z " fill="#FEF3F3" transform="translate(433.4375,42)"/>
<path d="M0 0 C1.65 0 3.3 0 5 0 C5 9.9 5 19.8 5 30 C2.33333333 30 -0.33333333 30 -3 30 C-4.670625 30.12375 -4.670625 30.12375 -6.375 30.25 C-10 30 -10 30 -12.9375 28.6875 C-15.77000759 24.99665677 -15.70366948 22.13676216 -15.484375 17.57421875 C-15 15 -15 15 -12.875 12.3125 C-9.5659544 10.80184875 -7.59821187 10.5406538 -4 11 C-2.68 11.66 -1.36 12.32 0 13 C0 8.71 0 4.42 0 0 Z " fill="#222222" transform="translate(341,172)"/>
<path d="M0 0 C2.375 1 2.375 1 4 2 C4 1.34 4 0.68 4 0 C6.475 0.495 6.475 0.495 9 1 C9 6.94 9 12.88 9 19 C6.33333333 19 3.66666667 19 1 19 C-0.670625 19.12375 -0.670625 19.12375 -2.375 19.25 C-6 19 -6 19 -8.9375 17.6875 C-11.77000759 13.99665677 -11.70366948 11.13676216 -11.484375 6.57421875 C-11 4 -11 4 -8.875 1.3125 C-5.5659544 -0.19815125 -3.59821187 -0.4593462 0 0 Z " fill="#1E1E1E" transform="translate(290,183)"/>
<path d="M0 0 C10.88888889 -0.5982906 10.88888889 -0.5982906 15.25 1.75 C17.92808265 6.72358207 17.99288047 11.48052275 17 17 C14.39639615 20.02580988 12.73938948 20.75353684 9 22 C6.03 22 3.06 22 0 22 C0 14.74 0 7.48 0 0 Z " fill="#F6F6F6" transform="translate(37,40)"/>
<path d="M0 0 C1.65 0 3.3 0 5 0 C5 0.66 5 1.32 5 2 C5.99 1.34 6.98 0.68 8 0 C11.08168205 -0.20097926 13.72376463 -0.05650269 16.75 0.5625 C19.02413438 1.24197896 19.02413438 1.24197896 21 0 C24.12259359 -0.27152988 26.31089509 -0.31738344 29.1796875 1.00390625 C31.96191501 4.0548038 31.42713349 7.2871569 31.25 11.1875 C31.23195313 11.93708984 31.21390625 12.68667969 31.1953125 13.45898438 C31.14824109 15.3065371 31.07649766 17.15343159 31 19 C29.35 19 27.7 19 26 19 C25.67 14.05 25.34 9.1 25 4 C23.02 4.66 21.04 5.32 19 6 C18.67 10.29 18.34 14.58 18 19 C16.68 19 15.36 19 14 19 C13.67 14.38 13.34 9.76 13 5 C10.69 5.33 8.38 5.66 6 6 C5.67 10.29 5.34 14.58 5 19 C3.35 19 1.7 19 0 19 C0 12.73 0 6.46 0 0 Z " fill="#292929" transform="translate(419,183)"/>
<path d="M0 0 C4.33435866 2.36419563 4.33435866 2.36419563 6 5 C6.8461203 8.51509038 6.87625396 11.48906352 6 15 C2.96355937 18.18826267 0.23232069 19.23382089 -4.0625 19.625 C-8 19 -8 19 -11 16.5 C-13.70927867 12.62435391 -13.6700086 9.61561481 -13 5 C-9.26908132 0.14980571 -6.01683653 -0.60168365 0 0 Z " fill="#1C1C1C" transform="translate(405,183)"/>
<path d="M0 0 C3 1.4375 3 1.4375 5 4 C5.4037314 7.04633691 5.29353824 9.94720232 5 13 C4.34 13 3.68 13 3 13 C2.773125 13.680625 2.54625 14.36125 2.3125 15.0625 C0.64427643 18.79614324 -1.55729608 21.72163421 -4 25 C-0.7 25.33 2.6 25.66 6 26 C6 27.32 6 28.64 6 30 C-0.27 30 -6.54 30 -13 30 C-10.91305188 24.78262971 -8.23248309 21.59938308 -4.45703125 17.63671875 C-1.80287517 14.65756396 -1.01215034 13.15483895 -0.6953125 9.1171875 C-0.79585937 8.08851563 -0.89640625 7.05984375 -1 6 C-3.25760857 5.21329449 -3.25760857 5.21329449 -6 5 C-7.69719127 5.94726954 -9.36935236 6.94228261 -11 8 C-11.66 7.67 -12.32 7.34 -13 7 C-12.64978759 4.46096004 -12.15988127 3.17906702 -10.4375 1.25 C-6.96061862 -0.53301609 -3.77858622 -0.64348201 0 0 Z " fill="#161616" transform="translate(188,172)"/>
<path d="M0 0 C2.62527189 -0.05382106 5.24944713 -0.09358313 7.875 -0.125 C8.62136719 -0.14175781 9.36773437 -0.15851563 10.13671875 -0.17578125 C12.09194461 -0.1933959 14.04742021 -0.10320189 16 0 C18 2 18 2 18.375 5.9375 C18.27312747 9.6864092 18.27312747 9.6864092 16.3125 11.9375 C10.95970257 14.39689341 5.7912626 14.08643676 0 14 C0 9.38 0 4.76 0 0 Z " fill="#F1F1F1" transform="translate(39,127)"/>
<path d="M0 0 C2.41854446 -0.13536629 4.82949783 -0.23420279 7.25 -0.3125 C8.27287109 -0.3753418 8.27287109 -0.3753418 9.31640625 -0.43945312 C13.0991582 -0.53126749 14.66609293 -0.30568957 17.49609375 2.28515625 C19.50694814 5.91514014 18.98749215 8.05003139 18 12 C17 13 17 13 13.18359375 13.09765625 C11.60153318 13.09098089 10.01948841 13.07901875 8.4375 13.0625 C7.63119141 13.05798828 6.82488281 13.05347656 5.99414062 13.04882812 C3.99606244 13.03700518 1.99802217 13.01906914 0 13 C0 8.71 0 4.42 0 0 Z " fill="#F4F4F4" transform="translate(345,122)"/>
<path d="M0 0 C2.5 1.5625 2.5 1.5625 4 4 C4.25 7.75 4.25 7.75 4 11 C-0.29 11 -4.58 11 -9 11 C-8.67 11.99 -8.34 12.98 -8 14 C-5.71294169 15.14352916 -4.40735238 15.10334439 -1.875 15.0625 C-0.59625 15.041875 0.6825 15.02125 2 15 C2 16.32 2 17.64 2 19 C-2.71551266 19.32962807 -6.71576172 19.53938008 -11.125 17.6875 C-13.71101626 13.9808767 -13.70217518 11.02116351 -13.4765625 6.57421875 C-13 4 -13 4 -11 1.3125 C-6.86028075 -0.49862717 -4.51276176 -0.57304911 0 0 Z " fill="#131313" transform="translate(235,183)"/>
<path d="M0 0 C1.32 0 2.64 0 4 0 C6.17457267 2.87354245 7 4.36436591 7 8 C7.66 8 8.32 8 9 8 C9.66 5.69 10.32 3.38 11 1 C12.32 1 13.64 1 15 1 C15.28875 1.969375 15.5775 2.93875 15.875 3.9375 C16.64214682 7.10664203 16.64214682 7.10664203 19 8 C19.66 5.36 20.32 2.72 21 0 C22.65 0 24.3 0 26 0 C24 6 22 12 20 18 C19.01 17.67 18.02 17.34 17 17 C15.3125 13.4375 15.3125 13.4375 14 10 C13.34 10 12.68 10 12 10 C10.68 12.64 9.36 15.28 8 18 C7.34 18 6.68 18 6 18 C4.9936345 15.56495491 3.99473587 13.12729136 3 10.6875 C2.71382812 9.99720703 2.42765625 9.30691406 2.1328125 8.59570312 C0.91089256 5.58454326 0 3.28113016 0 0 Z " fill="#252525" transform="translate(246,184)"/>
<path d="M0 0 C3 2 3 2 3.51171875 4.1640625 C3.67447917 6.44270833 3.83723958 8.72135417 4 11 C0.04 11 -3.92 11 -8 11 C-7.34 12.32 -6.68 13.64 -6 15 C-3.03 15 -0.06 15 3 15 C3 15.99 3 16.98 3 18 C-0.44741547 19.72370774 -4.23035339 19.50306672 -8 19 C-10.50160818 17.12379387 -11.61945652 15.76108697 -13 13 C-13.34556568 9.98864195 -13.57794337 7.90638829 -13 5 C-9.03390645 0.35676853 -6.03055828 -0.79648883 0 0 Z " fill="#161616" transform="translate(161,183)"/>
<path d="M0 0 C2.4375 1 2.4375 1 4 3 C4.33145271 5.75486103 4.18316636 8.20671304 4 11 C-0.29 11 -4.58 11 -9 11 C-6.61050787 15.12082838 -6.61050787 15.12082838 -3.95703125 15.390625 C-3.24933594 15.34421875 -2.54164062 15.2978125 -1.8125 15.25 C0.0746875 15.12625 0.0746875 15.12625 2 15 C2.33 15.99 2.66 16.98 3 18 C-0.47998917 19.73999458 -4.19558194 19.43947588 -8 19 C-11.0625 17.625 -11.0625 17.625 -13 15 C-13.89925912 10.89799493 -14.19575462 6.89889203 -11.890625 3.23828125 C-8.19886841 -0.22522158 -4.852543 -0.71889526 0 0 Z " fill="#151515" transform="translate(52,183)"/>
<path d="M0 0 C2.53206678 1.26603339 2.67486071 2.16418084 3.7265625 4.74609375 C4.0359375 5.50083984 4.3453125 6.25558594 4.6640625 7.03320312 C4.98117187 7.82662109 5.29828125 8.62003906 5.625 9.4375 C5.94984375 10.22705078 6.2746875 11.01660156 6.609375 11.83007812 C9 17.72126116 9 17.72126116 9 20 C3.39 20 -2.22 20 -8 20 C-6.87941976 13.27651859 -6.87941976 13.27651859 -5.0625 9.9375 C-3.51460196 7.00995371 -2.21474481 4.08358299 -1 1 C-0.67 0.67 -0.34 0.34 0 0 Z " fill="#EDEDED" transform="translate(279,126)"/>
<path d="M0 0 C1.65 0 3.3 0 5 0 C5.50757862 1.41396902 6.00574925 2.83131729 6.5 4.25 C6.7784375 5.03890625 7.056875 5.8278125 7.34375 6.640625 C8 9 8 9 8 13 C8.66 13 9.32 13 10 13 C10.13277344 12.31292969 10.26554687 11.62585938 10.40234375 10.91796875 C10.57894531 10.01691406 10.75554687 9.11585938 10.9375 8.1875 C11.19853516 6.84751953 11.19853516 6.84751953 11.46484375 5.48046875 C12 3 12 3 13 0 C14.65 0 16.3 0 18 0 C16.4866015 6.03212736 14.88185984 11.46682911 12 17 C10.59955954 20.64317483 9.29108279 24.31680951 8 28 C6.35 28 4.7 28 3 28 C3.309375 26.9275 3.61875 25.855 3.9375 24.75 C4.288125 23.5125 4.63875 22.275 5 21 C5.2475 20.41992188 5.495 19.83984375 5.75 19.2421875 C6.15379993 15.6206069 4.48598883 12.62690883 3.0625 9.375 C0 2.20426829 0 2.20426829 0 0 Z " fill="#1D1D1D" transform="translate(86,184)"/>
<path d="M0 0 C0.33 1.32 0.66 2.64 1 4 C-2.47325181 5.1577506 -5.36067448 5.06866652 -9 5 C-8.855625 6.299375 -8.71125 7.59875 -8.5625 8.9375 C-8.44068359 10.03384766 -8.44068359 10.03384766 -8.31640625 11.15234375 C-8.18113386 13.01140229 -8.18113386 13.01140229 -7 14 C-5.65252916 14.23075082 -4.29622435 14.41153063 -2.9375 14.5625 C-1.638125 14.706875 -0.33875 14.85125 1 15 C0.67 16.32 0.34 17.64 0 19 C-7.23186925 19.49029622 -7.23186925 19.49029622 -10.9375 17.125 C-13.76123756 14.21569463 -13.96191341 13.33189747 -14.4375 9.1875 C-14.37730823 5.51580183 -14.03190094 5.03828113 -11.5 2 C-7.74370649 -0.68691808 -4.48157996 -0.3863431 0 0 Z " fill="#1F1F1F" transform="translate(383,183)"/>
<path d="M0 0 C0.66 0.33 1.32 0.66 2 1 C1.67 2.32 1.34 3.64 1 5 C-1.97 5 -4.94 5 -8 5 C-7.67 7.97 -7.34 10.94 -7 14 C-4.03 14.33 -1.06 14.66 2 15 C1.67 16.32 1.34 17.64 1 19 C-6.23186925 19.49029622 -6.23186925 19.49029622 -9.9375 17.125 C-13.04006933 13.92841342 -13.47161173 11.52841725 -13.40625 7.04296875 C-13 5 -13 5 -10.4375 2 C-6.53481348 -0.27065397 -4.43850516 -0.51213521 0 0 Z " fill="#1D1D1D" transform="translate(77,183)"/>
<path d="M0 0 C0.66 0.33 1.32 0.66 2 1 C2 2.32 2 3.64 2 5 C1.36191406 4.98839844 0.72382812 4.97679687 0.06640625 4.96484375 C-0.75988281 4.95582031 -1.58617188 4.94679687 -2.4375 4.9375 C-3.26121094 4.92589844 -4.08492187 4.91429687 -4.93359375 4.90234375 C-6.99163938 4.76732652 -6.99163938 4.76732652 -8 6 C-8.16666667 9.5 -8.16666667 9.5 -8 13 C-6.50256881 14.49743119 -5.01175761 14.33202693 -2.9375 14.5625 C-1.638125 14.706875 -0.33875 14.85125 1 15 C1.33 15.99 1.66 16.98 2 18 C-1.224409 19.6122045 -4.5046505 19.44109573 -8 19 C-11 17.6875 -11 17.6875 -13 15 C-13.70241916 11.20578503 -13.70241916 7.79421497 -13 4 C-9.41702925 -0.81461694 -5.55313623 -0.4551751 0 0 Z " fill="#171717" transform="translate(124,183)"/>
<path d="M0 0 C4 0 8 0 12 0 C11.67 1.65 11.34 3.3 11 5 C9.35 5.33 7.7 5.66 6 6 C5.67 10.29 5.34 14.58 5 19 C3.35 19 1.7 19 0 19 C0 12.73 0 6.46 0 0 Z " fill="#121212" transform="translate(21,183)"/>
<path d="M0 0 C2.36191749 2.56839642 2.24512436 4.54379337 2.18359375 7.94335938 C2.15007812 8.68134766 2.1165625 9.41933594 2.08203125 10.1796875 C2.06398438 10.92927734 2.0459375 11.67886719 2.02734375 12.45117188 C1.98027234 14.2987246 1.90852891 16.14561909 1.83203125 17.9921875 C0.18203125 17.9921875 -1.46796875 17.9921875 -3.16796875 17.9921875 C-3.49796875 13.0421875 -3.82796875 8.0921875 -4.16796875 2.9921875 C-6.14796875 3.3221875 -8.12796875 3.6521875 -10.16796875 3.9921875 C-10.16796875 3.3321875 -10.16796875 2.6721875 -10.16796875 1.9921875 C-11.15796875 2.3221875 -12.14796875 2.6521875 -13.16796875 2.9921875 C-13.16796875 2.3321875 -13.16796875 1.6721875 -13.16796875 0.9921875 C-8.67448886 -1.12239127 -4.67180296 -2.17175705 0 0 Z " fill="#282828" transform="translate(448.16796875,184.0078125)"/>
<path d="M0 0 C1.32 0 2.64 0 4 0 C4 9.57 4 19.14 4 29 C2.68 29 1.36 29 0 29 C0 19.43 0 9.86 0 0 Z " fill="#181818" transform="translate(135,173)"/>
<path d="M0 0 C3.63 0 7.26 0 11 0 C11 1.65 11 3.3 11 5 C9.02 5.66 7.04 6.32 5 7 C4.67 10.96 4.34 14.92 4 19 C2.68 19 1.36 19 0 19 C0 12.73 0 6.46 0 0 Z " fill="#010101" transform="translate(308,183)"/>
<path d="M0 0 C0.99 0.66 1.98 1.32 3 2 C3.4375 5.4375 3.4375 5.4375 3 9 C1.3125 11 1.3125 11 -1 12 C-4.37036311 11.75925978 -5.58798021 11.41201979 -8 9 C-8.333728 5.86295684 -8.52849028 3.83445834 -6.8125 1.125 C-4.36830089 -0.3920891 -2.83079592 -0.35384949 0 0 Z " fill="#E6E6E6" transform="translate(291,187)"/>
<path d="M0 0 C0.99 0.66 1.98 1.32 3 2 C3.3125 5.5 3.3125 5.5 3 9 C1 11 1 11 -2.5 11.25 C-6 11 -6 11 -8 9 C-8.3125 5.5 -8.3125 5.5 -8 2 C-4.75366476 -0.1642235 -3.75698557 -0.37569856 0 0 Z " fill="#E8E8E8" transform="translate(338,187)"/>
<path d="M0 0 C1.32 0 2.64 0 4 0 C4 1.65 4 3.3 4 5 C2.02 5.66 0.04 6.32 -2 7 C-2.33 10.96 -2.66 14.92 -3 19 C-4.32 19 -5.64 19 -7 19 C-7 13.06 -7 7.12 -7 1 C-5.02 1 -3.04 1 -1 1 C-0.67 0.67 -0.34 0.34 0 0 Z " fill="#191919" transform="translate(211,183)"/>
<path d="M0 0 C1.875 0.8125 1.875 0.8125 3.875 2.8125 C4.42686722 8.88303942 4.42686722 8.88303942 2.6875 11.8125 C0.875 12.8125 0.875 12.8125 -1.6875 12.625 C-4.125 11.8125 -4.125 11.8125 -6.125 9.8125 C-6.5 6.375 -6.5 6.375 -6.125 2.8125 C-4.08321652 0.47903317 -3.11796663 -0.2751147 0 0 Z " fill="#F4F4F4" transform="translate(402.125,186.1875)"/>
<path d="M0 0 C4 0 8 0 12 0 C11.67 1.65 11.34 3.3 11 5 C9.02 5.33 7.04 5.66 5 6 C4.67 4.35 4.34 2.7 4 1 C3.01 1 2.02 1 1 1 C1 6.94 1 12.88 1 19 C0.67 19 0.34 19 0 19 C0 12.73 0 6.46 0 0 Z " fill="#4A4A4A" transform="translate(21,183)"/>
<path d="M0 0 C0.66 0 1.32 0 2 0 C2 0.99 2 1.98 2 3 C2.66 3 3.32 3 4 3 C3.34 7.62 2.68 12.24 2 17 C1.34 17 0.68 17 0 17 C0 11.39 0 5.78 0 0 Z " fill="#000000" transform="translate(421,184)"/>
<path d="M0 0 C2.31 0.33 4.62 0.66 7 1 C7 1.99 7 2.98 7 4 C4.03 4 1.06 4 -2 4 C-1.34 2.68 -0.68 1.36 0 0 Z " fill="#E8E8E8" transform="translate(228,187)"/>
<path d="M0 0 C1.98 0 3.96 0 6 0 C6.33 1.32 6.66 2.64 7 4 C4.36 4 1.72 4 -1 4 C-0.67 2.68 -0.34 1.36 0 0 Z " fill="#ECECEC" transform="translate(45,187)"/>
<path d="M0 0 C0 0.33 0 0.66 0 1 C-1.60875 1.12375 -1.60875 1.12375 -3.25 1.25 C-6.92018382 1.75146079 -6.92018382 1.75146079 -9.375 3.5 C-11.73975697 7.13808764 -11.8177212 10.73467611 -12 15 C-12.33 15 -12.66 15 -13 15 C-13.77287143 5.03854599 -13.77287143 5.03854599 -11 1.3125 C-7.03558756 -0.42193044 -4.30166212 -0.29163811 0 0 Z " fill="#393939" transform="translate(124,183)"/>
<path d="M0 0 C0.33 1.32 0.66 2.64 1 4 C-1.64 4 -4.28 4 -7 4 C-7 3.01 -7 2.02 -7 1 C-4.53721199 -0.231394 -2.7204945 -0.07159196 0 0 Z " fill="#EFEFEF" transform="translate(160,187)"/>
<path d="M0 0 C1.98 0 3.96 0 6 0 C6 0.99 6 1.98 6 3 C5.34 3 4.68 3 4 3 C4 2.34 4 1.68 4 1 C3.01 1 2.02 1 1 1 C1 6.94 1 12.88 1 19 C0.67 19 0.34 19 0 19 C0 12.73 0 6.46 0 0 Z " fill="#747474" transform="translate(308,183)"/>
<path d="M0 0 C0 1.65 0 3.3 0 5 C-1.98 5.33 -3.96 5.66 -6 6 C-6.33 5.01 -6.66 4.02 -7 3 C-3.375 0 -3.375 0 0 0 Z " fill="#191919" transform="translate(319,183)"/>
<path d="M0 0 C1.65 0 3.3 0 5 0 C4.67 1.65 4.34 3.3 4 5 C2.68 5 1.36 5 0 5 C0 3.35 0 1.7 0 0 Z " fill="#1F1F1F" transform="translate(356,197)"/>
<path d="M0 0 C1.8871875 0.061875 1.8871875 0.061875 3.8125 0.125 C3.8125 0.455 3.8125 0.785 3.8125 1.125 C2.20375 1.24875 2.20375 1.24875 0.5625 1.375 C-3.52250175 2.19200035 -4.53641677 3.0811637 -7.1875 6.125 C-7.8475 6.125 -8.5075 6.125 -9.1875 6.125 C-7.20938974 1.56013016 -5.01716504 -0.16449721 0 0 Z " fill="#343434" transform="translate(231.1875,182.875)"/>
<path d="M0 0 C0 0.33 0 0.66 0 1 C-1.65 1.33 -3.3 1.66 -5 2 C-4.01 2.66 -3.02 3.32 -2 4 C-4.875 4.625 -4.875 4.625 -8 5 C-8.66 4.34 -9.32 3.68 -10 3 C-6.68152292 -0.06320961 -4.44849969 -0.3033068 0 0 Z " fill="#2D2D2D" transform="translate(433,183)"/>
<path d="M0 0 C-3.75 3 -3.75 3 -6 3 C-6 4.98 -6 6.96 -6 9 C-6.33 9 -6.66 9 -7 9 C-7.25 5.6875 -7.25 5.6875 -7 2 C-4.37226805 -0.89956629 -3.79438356 -1.26479452 0 0 Z " fill="#A7A7A7" transform="translate(403,187)"/>
<path d="M0 0 C0.66 0.33 1.32 0.66 2 1 C1.67 1.33 1.34 1.66 1 2 C1.99 2.66 2.98 3.32 4 4 C2.02 4.33 0.04 4.66 -2 5 C-2 4.34 -2 3.68 -2 3 C-2.99 3.33 -3.98 3.66 -5 4 C-5 3.34 -5 2.68 -5 2 C-2.625 0.9375 -2.625 0.9375 0 0 Z " fill="#3B3B3B" transform="translate(440,183)"/>
</svg>
