<?xml version="1.0" encoding="UTF-8"?>
<svg version="1.1" xmlns="http://www.w3.org/2000/svg" width="407" height="191">
<path d="M0 0 C134.31 0 268.62 0 407 0 C407 63.03 407 126.06 407 191 C272.69 191 138.38 191 0 191 C0 127.97 0 64.94 0 0 Z " fill="#FBFBFB" transform="translate(0,0)"/>
<path d="M0 0 C38.31707317 0 38.31707317 0 46 6.5625 C49.35562294 10.65216546 49.2163997 14.22604726 49.3125 19.375 C49.36857422 21.33566406 49.36857422 21.33566406 49.42578125 23.3359375 C48.93681462 27.54374204 48.06820304 29.13061222 45 32 C42.8605957 32.63037109 42.8605957 32.63037109 41 33 C41.42877441 33.40347656 41.85754883 33.80695312 42.29931641 34.22265625 C48.32618801 40.83379226 47.70205666 47.43782435 47.375 56 C47.3448505 57.36061781 47.31748348 58.72130026 47.29296875 60.08203125 C47.22259305 63.38968925 47.12416613 66.69399708 47 70 C42.22041378 72.38979311 36.34373985 71 31 71 C30.67 61.43 30.34 51.86 30 42 C25.71 41.34 21.42 40.68 17 40 C17 50.89 17 61.78 17 73 C6 75 6 75 0 75 C0 50.25 0 25.5 0 0 Z " fill="#0A0A0A" transform="translate(23,25)"/>
<path d="M0 0 C3.96188663 0.27023273 6.78937954 1.36732212 10.44140625 2.91796875 C11.7561442 3.46702358 13.07125654 4.01518267 14.38671875 4.5625 C15.37720215 4.97943115 15.37720215 4.97943115 16.38769531 5.40478516 C19.50824965 6.69876686 22.66043078 7.90039716 25.81640625 9.10546875 C27.65203125 9.80671875 29.48765625 10.50796875 31.37890625 11.23046875 C31.37890625 18.82046875 31.37890625 26.41046875 31.37890625 34.23046875 C29.70441406 34.85695312 28.02992187 35.4834375 26.3046875 36.12890625 C24.1002495 36.95439793 21.89582302 37.77992037 19.69140625 38.60546875 C18.0372168 39.22421875 18.0372168 39.22421875 16.34960938 39.85546875 C15.28291016 40.25507813 14.21621094 40.6546875 13.1171875 41.06640625 C12.13790283 41.4329834 11.15861816 41.79956055 10.1496582 42.17724609 C8.30800481 42.87729832 6.47878073 43.61099843 4.6640625 44.37817383 C-0.36314499 46.25317184 -5.98379978 43.14939526 -10.80859375 41.41796875 C-11.51306641 41.16982422 -12.21753906 40.92167969 -12.94335938 40.66601562 C-18.57306184 38.66377756 -24.06297597 36.45371586 -29.62109375 34.23046875 C-29.62109375 26.64046875 -29.62109375 19.05046875 -29.62109375 11.23046875 C-21.73159099 7.84925328 -21.73159099 7.84925328 -18.87109375 6.79296875 C-17.88689453 6.42751953 -17.88689453 6.42751953 -16.8828125 6.0546875 C-15.15842727 5.42628459 -13.43136443 4.80522413 -11.703125 4.1875 C-10.20845703 3.65189453 -10.20845703 3.65189453 -8.68359375 3.10546875 C-7.74644531 2.77289063 -6.80929688 2.4403125 -5.84375 2.09765625 C-0.60328474 0.0530459 -0.60328474 0.0530459 0 0 Z " fill="#F23A3A" transform="translate(58.62109375,99.76953125)"/>
<path d="M0 0 C12.87 0 25.74 0 39 0 C39 3.3 39 6.6 39 10 C31.41 10 23.82 10 16 10 C16 15.94 16 21.88 16 28 C20.95 28 25.9 28 31 28 C31 31.3 31 34.6 31 38 C26.05 38 21.1 38 16 38 C16 46.25 16 54.5 16 63 C21.32467687 62.92140231 21.32467687 62.92140231 26.64892578 62.81982422 C31.16603083 62.78641208 34.74778696 63.27466116 39 65 C39 67.97 39 70.94 39 74 C35.49952572 73.8837255 31.99988765 73.75707123 28.5 73.625 C27.53707031 73.5940625 26.57414062 73.563125 25.58203125 73.53125 C16.89575807 73.19061184 8.72784488 72.09098061 0 71 C0 47.57 0 24.14 0 0 Z " fill="#080808" transform="translate(342,25)"/>
<path d="M0 0 C13.2 0 26.4 0 40 0 C40 2.97 40 5.94 40 9 C32.41 9 24.82 9 17 9 C17 14.28 17 19.56 17 25 C21.95 25 26.9 25 32 25 C32 27.97 32 30.94 32 34 C27.05 34.33 22.1 34.66 17 35 C16.67 42.59 16.34 50.18 16 58 C21.445 57.505 21.445 57.505 27 57 C29.39518 56.9402996 31.79171459 56.91173887 34.1875 56.9375 C35.29480469 56.94652344 36.40210938 56.95554688 37.54296875 56.96484375 C38.35378906 56.97644531 39.16460937 56.98804688 40 57 C40 59.97 40 62.94 40 66 C35.7504759 66.43297473 31.50040365 66.85997303 27.24975586 67.28173828 C25.80753882 67.42565412 24.36547614 67.57112651 22.92358398 67.71826172 C20.83617413 67.93098217 18.74825021 68.13786601 16.66015625 68.34375 C14.78275757 68.53227539 14.78275757 68.53227539 12.86743164 68.72460938 C8.58814096 69.0293275 4.29012609 69 0 69 C0 46.23 0 23.46 0 0 Z " fill="#0F0F0F" transform="translate(83,25)"/>
<path d="M0 0 C0.87720703 -0.020625 1.75441406 -0.04125 2.65820312 -0.0625 C9.73711492 -0.10485699 15.87170205 1.14683397 21.1875 6.25 C21.1875 7.24 21.1875 8.23 21.1875 9.25 C21.8475 9.25 22.5075 9.25 23.1875 9.25 C23.1875 11.56 23.1875 13.87 23.1875 16.25 C17.9075 16.25 12.6275 16.25 7.1875 16.25 C6.5275 14.27 5.8675 12.29 5.1875 10.25 C0.10446314 10.13679144 0.10446314 10.13679144 -4.8125 11.25 C-4.83777124 17.49795675 -4.85533344 23.74590041 -4.86743164 29.99389648 C-4.87247298 32.12118014 -4.87930591 34.24846031 -4.88793945 36.37573242 C-4.90001379 39.42627826 -4.90573014 42.47677845 -4.91015625 45.52734375 C-4.91531754 46.48462875 -4.92047882 47.44191376 -4.92579651 48.4282074 C-4.92587204 49.30904495 -4.92594757 50.18988251 -4.92602539 51.09741211 C-4.92935631 52.2665641 -4.92935631 52.2665641 -4.93275452 53.45933533 C-5.00821386 55.27366535 -5.00821386 55.27366535 -3.8125 56.25 C1.36485677 56.62052339 1.36485677 56.62052339 6.1875 55.25 C6.5175 52.94 6.8475 50.63 7.1875 48.25 C12.4675 48.25 17.7475 48.25 23.1875 48.25 C23.1875 51.22 23.1875 54.19 23.1875 57.25 C22.5275 57.25 21.8675 57.25 21.1875 57.25 C20.8575 58.24 20.5275 59.23 20.1875 60.25 C18.04296875 61.6015625 18.04296875 61.6015625 15.375 62.875 C14.06595703 63.51308594 14.06595703 63.51308594 12.73046875 64.1640625 C7.29663928 66.48449966 2.15105083 66.53232459 -3.6875 66.625 C-5.01587891 66.68107422 -5.01587891 66.68107422 -6.37109375 66.73828125 C-10.75289924 66.7970536 -13.8285993 66.74008174 -17.3203125 63.9140625 C-20.69172689 60.31013677 -22.05509516 58.29971074 -22.16650391 53.43066406 C-22.19217438 52.4524469 -22.21784485 51.47422974 -22.24429321 50.46636963 C-22.25906708 49.4101239 -22.27384094 48.35387817 -22.2890625 47.265625 C-22.30520599 46.17666931 -22.32134949 45.08771362 -22.33798218 43.96575928 C-22.3656549 41.6592037 -22.38710329 39.35256638 -22.40283203 37.04589844 C-22.43724183 33.52640609 -22.5249983 30.01068239 -22.61328125 26.4921875 C-22.63353775 24.25002761 -22.65056915 22.00783579 -22.6640625 19.765625 C-22.69907867 18.7174762 -22.73409485 17.66932739 -22.77017212 16.5894165 C-22.74530803 12.37895559 -22.71625344 9.43926039 -20.11444092 6.01550293 C-13.70838748 0.16459993 -8.34523995 0.04841328 0 0 Z " fill="#0A0A0A" transform="translate(152.8125,23.75)"/>
<path d="M0 0 C2.54930741 1.94947037 4.33196383 3.57533599 5.859375 6.421875 C5.859375 8.401875 5.859375 10.381875 5.859375 12.421875 C0.579375 12.421875 -4.700625 12.421875 -10.140625 12.421875 C-10.800625 10.441875 -11.460625 8.461875 -12.140625 6.421875 C-13.31098805 5.02899694 -13.31098805 5.02899694 -16.578125 5.234375 C-20.19095221 5.02622572 -20.19095221 5.02622572 -22.140625 7.421875 C-22.44560434 9.38631692 -22.44560434 9.38631692 -22.39941406 11.65625 C-22.40571838 12.53055664 -22.41202271 13.40486328 -22.41851807 14.30566406 C-22.4144696 15.25151367 -22.41042114 16.19736328 -22.40625 17.171875 C-22.40816345 18.14092773 -22.4100769 19.10998047 -22.41204834 20.10839844 C-22.41341079 22.15950785 -22.40971018 24.21062586 -22.40136719 26.26171875 C-22.39066859 29.40905039 -22.40126054 32.5558112 -22.4140625 35.703125 C-22.41274092 37.6927096 -22.41017855 39.68229384 -22.40625 41.671875 C-22.41029846 42.61772461 -22.41434692 43.56357422 -22.41851807 44.53808594 C-22.41221375 45.41239258 -22.40590942 46.28669922 -22.39941406 47.1875 C-22.39782288 47.95868164 -22.39623169 48.72986328 -22.39459229 49.52441406 C-22.3036992 51.66350083 -22.3036992 51.66350083 -20.140625 53.421875 C-17.92989523 53.66441313 -17.92989523 53.66441313 -15.515625 53.546875 C-14.69835937 53.52882812 -13.88109375 53.51078125 -13.0390625 53.4921875 C-12.41257812 53.46898437 -11.78609375 53.44578125 -11.140625 53.421875 C-10.810625 50.781875 -10.480625 48.141875 -10.140625 45.421875 C-7.66138699 45.39502405 -5.1824366 45.37510953 -2.703125 45.359375 C-1.99607422 45.35099609 -1.28902344 45.34261719 -0.56054688 45.33398438 C1.24631059 45.32533912 3.05325103 45.36967489 4.859375 45.421875 C5.859375 46.421875 5.859375 46.421875 6.234375 50.171875 C6.19604337 53.73032767 5.91357162 54.3511183 3.609375 57.359375 C1.17891939 59.18221671 -0.17348117 60.09219235 -3.140625 60.421875 C-3.140625 61.081875 -3.140625 61.741875 -3.140625 62.421875 C-6.28637707 62.48084368 -9.4319836 62.51579103 -12.578125 62.546875 C-13.45662109 62.56363281 -14.33511719 62.58039063 -15.24023438 62.59765625 C-22.35192771 62.65014107 -29.42955372 62.67148734 -35.078125 57.984375 C-37.96758775 54.39443644 -39.38531163 52.36649868 -39.49462891 47.78613281 C-39.52029938 46.84795715 -39.54596985 45.90978149 -39.57241821 44.94317627 C-39.58719208 43.9306781 -39.60196594 42.91817993 -39.6171875 41.875 C-39.63333099 40.8304364 -39.64947449 39.7858728 -39.66610718 38.70965576 C-39.69377709 36.49725981 -39.71522674 34.28477868 -39.73095703 32.07226562 C-39.76536312 28.69756099 -39.85311884 25.32678913 -39.94140625 21.953125 C-39.96166329 19.80211212 -39.97869452 17.65106595 -39.9921875 15.5 C-40.02720367 14.49559875 -40.06221985 13.49119751 -40.09829712 12.45635986 C-40.07308911 8.36016619 -39.99154958 5.55154804 -37.47772217 2.2142334 C-28.32969435 -6.24882768 -10.46730367 -6.4247588 0 0 Z " fill="#070707" transform="translate(279.140625,27.578125)"/>
<path d="M0 0 C5.28 0 10.56 0 16 0 C18.97 6.93 21.94 13.86 25 21 C27.42736376 16.14527247 29.67279772 11.55158924 31.6875 6.5625 C33.89285714 1.10714286 33.89285714 1.10714286 35 0 C37.69654854 -0.07319621 40.36691458 -0.09242537 43.0625 -0.0625 C43.82111328 -0.05798828 44.57972656 -0.05347656 45.36132812 -0.04882812 C47.24091871 -0.0370068 49.12046899 -0.01907078 51 0 C50.36255439 2.99855757 49.37511052 5.42845775 47.92578125 8.125 C47.50490234 8.91519531 47.08402344 9.70539062 46.65039062 10.51953125 C46.20888672 11.33808594 45.76738281 12.15664063 45.3125 13 C44.00200162 15.44492981 42.69699761 17.89156866 41.41308594 20.35058594 C40.43568259 22.18313278 39.41483985 23.99292511 38.36035156 25.78222656 C33.85408434 33.8193436 33.10594596 40.62311667 33.125 49.75 C33.104375 51.03132813 33.08375 52.31265625 33.0625 53.6328125 C33.01590123 56.7549301 33.00427735 59.87753759 33 63 C27.72 63 22.44 63 17 63 C17.06574219 60.20789063 17.06574219 60.20789063 17.1328125 57.359375 C17.22306704 41.4554638 15.81580007 29.73756552 7.24951172 16.00341797 C5.50584173 13.20768606 3.94554698 10.33378447 2.375 7.4375 C1.90835938 6.63183594 1.44171875 5.82617188 0.9609375 4.99609375 C0 3 0 3 0 0 Z " fill="#050505" transform="translate(183,25)"/>
<path d="M0 0 C5.28 0 10.56 0 16 0 C16 19.47 16 38.94 16 59 C22.27 59 28.54 59 35 59 C36 60 36 60 36.09765625 62.06640625 C36.06510417 64.37760417 36.03255208 66.68880208 36 69 C23.98149575 69 11.97698943 67.99808245 0 67 C0 44.89 0 22.78 0 0 Z " fill="#070707" transform="translate(295,25)"/>
<path d="M0 0 C2.85628706 0.06045052 5.70765491 0.1476439 8.5625 0.25 C9.76229492 0.27126953 9.76229492 0.27126953 10.98632812 0.29296875 C16.74601795 0.52805813 20.2783207 1.64127967 25 5 C28.06343313 10.13866202 28.553478 14.18848104 28 20 C26.27786673 24.80384542 24.5566153 26.7920895 20 29 C16.94921875 29.328125 16.94921875 29.328125 13.6875 29.25 C11.9859375 29.21132812 11.9859375 29.21132812 10.25 29.171875 C6.44820866 28.97081873 2.76002689 28.58980814 -1 28 C-0.67 27.34 -0.34 26.68 0 26 C0.08510205 24.0406396 0.10717656 22.07837206 0.09765625 20.1171875 C0.09443359 18.95058594 0.09121094 17.78398438 0.08789062 16.58203125 C0.07951172 15.35871094 0.07113281 14.13539062 0.0625 12.875 C0.05798828 11.64394531 0.05347656 10.41289063 0.04882812 9.14453125 C0.0370133 6.09630608 0.02054028 3.04817686 0 0 Z " fill="#0C0C0C" transform="translate(277,106)"/>
<path d="M0 0 C0.66 0 1.32 0 2 0 C2.33773437 0.85464844 2.67546875 1.70929688 3.0234375 2.58984375 C3.46945313 3.69457031 3.91546875 4.79929687 4.375 5.9375 C4.81585938 7.03964844 5.25671875 8.14179687 5.7109375 9.27734375 C6.71041432 12.11230186 6.71041432 12.11230186 9 13 C9.12375 12.29875 9.2475 11.5975 9.375 10.875 C10.03803093 7.82505771 11.01380464 4.95858609 12 2 C12 1.34 12 0.68 12 0 C15.3 0 18.6 0 22 0 C20.60333812 3.53652737 19.1360914 7.03384154 17.6171875 10.51953125 C16.95009766 12.0519043 16.95009766 12.0519043 16.26953125 13.61523438 C15.80933594 14.67033203 15.34914062 15.72542969 14.875 16.8125 C14.40707031 17.88693359 13.93914062 18.96136719 13.45703125 20.06835938 C12.30534869 22.71252851 11.15298288 25.35639767 10 28 C8.68 28 7.36 28 6 28 C3.525 22.06 3.525 22.06 1 16 C-0.98 20.29 -2.96 24.58 -5 29 C-5.99 29 -6.98 29 -8 29 C-10.7981153 25.35028439 -12.23375781 21.02390849 -13.88671875 16.7734375 C-16.03359748 11.42507294 -18.42237338 6.15525325 -21 1 C-17.7 1 -14.4 1 -11 1 C-10.896875 1.680625 -10.79375 2.36125 -10.6875 3.0625 C-9.85274981 6.62915989 -8.50527246 9.66222194 -7 13 C-3.67006966 9.17058011 -1.94675475 4.62477778 0 0 Z " fill="#111111" transform="translate(183,103)"/>
<path d="M0 0 C1.21042969 -0.04898438 2.42085937 -0.09796875 3.66796875 -0.1484375 C6.8125 0.375 6.8125 0.375 8.7421875 2.60546875 C9.84247756 5.45256967 10.11174885 7.06151306 9.75 10.0625 C9.67652344 10.82949219 9.60304688 11.59648438 9.52734375 12.38671875 C8.8125 14.375 8.8125 14.375 6.75390625 15.64453125 C5.79291016 16.00611328 5.79291016 16.00611328 4.8125 16.375 C4.8125 17.365 4.8125 18.355 4.8125 19.375 C5.4725 19.375 6.1325 19.375 6.8125 19.375 C9.8125 23.75961538 9.8125 23.75961538 9.8125 26.375 C10.4725 26.705 11.1325 27.035 11.8125 27.375 C8.68651724 27.86535024 5.91480487 28.0788843 2.8125 27.375 C1.03631393 25.44323559 0.0084215 23.58643514 -1.1171875 21.22265625 C-2.11406658 19.03148524 -2.11406658 19.03148524 -5.1875 18.375 C-5.043125 19.633125 -4.89875 20.89125 -4.75 22.1875 C-4.62818359 23.24904297 -4.62818359 23.24904297 -4.50390625 24.33203125 C-4.21579265 26.56896393 -4.21579265 26.56896393 -3.1875 29.375 C-6.8175 29.375 -10.4475 29.375 -14.1875 29.375 C-13.8575 28.715 -13.5275 28.055 -13.1875 27.375 C-13.10239795 25.4156396 -13.08032344 23.45337206 -13.08984375 21.4921875 C-13.09306641 20.32558594 -13.09628906 19.15898438 -13.09960938 17.95703125 C-13.10798828 16.73371094 -13.11636719 15.51039062 -13.125 14.25 C-13.12951172 13.01894531 -13.13402344 11.78789063 -13.13867188 10.51953125 C-13.1504867 7.47130608 -13.16695972 4.42317686 -13.1875 1.375 C-8.76141533 0.60575341 -4.49626733 0.12529791 0 0 Z " fill="#0C0C0C" transform="translate(113.1875,106.625)"/>
<path d="M0 0 C4.3003125 0.12375 4.3003125 0.12375 8.6875 0.25 C9.58170654 0.26579102 10.47591309 0.28158203 11.3972168 0.29785156 C15.29448283 0.46393445 17.61122466 0.77470968 21.046875 2.765625 C23.81277915 5.92981935 23.64762493 7.83319887 23.44140625 11.87109375 C22.82114837 14.86260302 21.44098846 16.24553954 19 18 C20.25756667 21.48249231 21.7731892 24.06465849 24 27 C24 27.66 24 28.32 24 29 C21.36 29 18.72 29 16 29 C15.67386719 28.28972656 15.34773438 27.57945312 15.01171875 26.84765625 C14.57472656 25.92855469 14.13773437 25.00945312 13.6875 24.0625 C13.25824219 23.14597656 12.82898438 22.22945312 12.38671875 21.28515625 C11.14921339 18.69030588 11.14921339 18.69030588 8 18 C8.14107747 19.45880109 8.28802415 20.91703551 8.4375 22.375 C8.51871094 23.18710938 8.59992188 23.99921875 8.68359375 24.8359375 C8.89090114 27.04272805 8.89090114 27.04272805 10 29 C6.7 29 3.4 29 0 29 C0 19.43 0 9.86 0 0 Z " fill="#0E0E0E" transform="translate(245,104)"/>
<path d="M0 0 C3.3 0 6.6 0 10 0 C12.24630824 4.9917961 14.42157854 9.99835854 16.5 15.0625 C18.47109555 19.82852361 20.62382168 24.42365656 23 29 C19.37 29 15.74 29 12 29 C12.33 27.68 12.66 26.36 13 25 C8.38 25 3.76 25 -1 25 C-0.67 26.32 -0.34 27.64 0 29 C-3.63 29 -7.26 29 -11 29 C-10.37351563 27.63746094 -9.74703125 26.27492187 -9.1015625 24.87109375 C-8.27578473 23.06001296 -7.45027822 21.24880848 -6.625 19.4375 C-6.2125 18.54224609 -5.8 17.64699219 -5.375 16.72460938 C-1.50056326 8.6820744 -1.50056326 8.6820744 0 0 Z " fill="#131313" transform="translate(216,103)"/>
<path d="M0 0 C7.59 0 15.18 0 23 0 C23 2.31 23 4.62 23 7 C18.05 6.67 13.1 6.34 8 6 C8 7.65 8 9.3 8 11 C12.64586892 10.51515724 12.64586892 10.51515724 17 9 C17 11.97 17 14.94 17 18 C14.03 17.67 11.06 17.34 8 17 C8 18.65 8 20.3 8 22 C10.29199177 21.85936865 12.58359186 21.71234057 14.875 21.5625 C16.15117187 21.48128906 17.42734375 21.40007812 18.7421875 21.31640625 C21.88300152 21.20793973 21.88300152 21.20793973 24 20 C24 22.64 24 25.28 24 28 C16.41 28 8.82 28 1 28 C0.67 18.76 0.34 9.52 0 0 Z " fill="#0F0F0F" transform="translate(132,105)"/>
<path d="M0 0 C11.29384256 -0.49103663 11.29384256 -0.49103663 14.359375 1.640625 C16.42588409 4.61246189 16.53597394 6.40260635 16.5 10 C16.5103125 11.03125 16.520625 12.0625 16.53125 13.125 C15.88303619 16.6329806 14.74149226 17.79443856 12 20 C8.1002699 21.6713129 4.36692677 21 0 21 C0 14.07 0 7.14 0 0 Z " fill="#FAFAFA" transform="translate(40,35)"/>
<path d="M0 0 C2 2 2 2 2.36328125 4.36328125 C1.89101694 7.79100612 0.69405244 8.85256737 -1.8125 11.1875 C-2.52019531 11.86167969 -3.22789063 12.53585938 -3.95703125 13.23046875 C-6 15 -6 15 -9 17 C-9.33 17.99 -9.66 18.98 -10 20 C-8.7625 19.95875 -7.525 19.9175 -6.25 19.875 C-2.98362038 19.86341709 -0.7853053 20.1431298 2 22 C2 23.65 2 25.3 2 27 C-4.95776959 25.63125844 -11.38603107 23.5466871 -18 21 C-18.39811438 16.47527699 -18.39811438 16.47527699 -16.609375 14.33984375 C-15.99578125 13.87707031 -15.3821875 13.41429688 -14.75 12.9375 C-14.11449219 12.43863281 -13.47898437 11.93976563 -12.82421875 11.42578125 C-12.22222656 10.95527344 -11.62023438 10.48476562 -11 10 C-9.64946454 8.68409365 -8.30693833 7.35921586 -7 6 C-8.32 5.67 -9.64 5.34 -11 5 C-11 5.99 -11 6.98 -11 8 C-13.31 8.33 -15.62 8.66 -18 9 C-16.62090338 5.59155912 -15.39436506 4.33262465 -12.0625 2.8125 C-11.37285156 2.48894531 -10.68320312 2.16539063 -9.97265625 1.83203125 C-6.48686102 0.36178495 -3.77538568 -0.29041428 0 0 Z " fill="#FBEFEF" transform="translate(65,109)"/>
<path d="M0 0 C3.3 0 6.6 0 10 0 C10.33 0.99 10.66 1.98 11 3 C11.99 2.34 12.98 1.68 14 1 C17.125 0.8125 17.125 0.8125 20 1 C21 2 21 2 21.0625 4.5625 C21.041875 5.366875 21.02125 6.17125 21 7 C20.34 7 19.68 7 19 7 C19 7.66 19 8.32 19 9 C19.99 9 20.98 9 22 9 C22 10.32 22 11.64 22 13 C14.66666667 13 7.33333333 13 0 13 C0 8.71 0 4.42 0 0 Z " fill="#B9B9B9" transform="translate(162,149)"/>
<path d="M0 0 C8.14583333 0.47916667 8.14583333 0.47916667 11.5625 2.5625 C13.63105126 6.07004344 13.77278392 9.03033102 13 13 C11.5625 15.5 11.5625 15.5 9 17 C5.91796267 17.31828269 3.11507599 17.18323976 0 17 C0 11.39 0 5.78 0 0 Z " fill="#F5F5F5" transform="translate(285,112)"/>
<path d="M0 0 C1.9375 1.0625 1.9375 1.0625 3 3 C2.875 6.5625 2.875 6.5625 2 10 C-1.22143276 12.14762184 -2.2595467 12.561068 -6 12 C-8.2855347 9.87208838 -8.92303658 8.52591672 -9.375 5.4375 C-9 3 -9 3 -7.875 1.1875 C-5.12844028 -0.55198782 -3.18153026 -0.39769128 0 0 Z " fill="#434343" transform="translate(302,150)"/>
<path d="M0 0 C6.0546875 -0.1953125 6.0546875 -0.1953125 8 0 C10 2 10 2 10.25 5.5 C10 9 10 9 8 11 C5.31160615 11.26991906 2.70858064 11.08737357 0 11 C0 7.37 0 3.74 0 0 Z " fill="#151515" transform="translate(261,150)"/>
<path d="M0 0 C3 0 3 0 4.6875 1.5 C5.120625 1.995 5.55375 2.49 6 3 C6.33 2.01 6.66 1.02 7 0 C7.66 0 8.32 0 9 0 C9.33 0.99 9.66 1.98 10 3 C10.66 3.33 11.32 3.66 12 4 C12.33 2.68 12.66 1.36 13 0 C13.99 0 14.98 0 16 0 C15.34 2.64 14.68 5.28 14 8 C13.34 8 12.68 8 12 8 C12 8.99 12 9.98 12 11 C11.34 11 10.68 11 10 11 C9.67 10.01 9.34 9.02 9 8 C8.34 7.67 7.68 7.34 7 7 C6.67 8.32 6.34 9.64 6 11 C5.34 11 4.68 11 4 11 C3.32880451 9.5437455 2.66318193 8.08492133 2 6.625 C1.62875 5.81289062 1.2575 5.00078125 0.875 4.1640625 C0 2 0 2 0 0 Z " fill="#2E2E2E" transform="translate(213,150)"/>
<path d="M0 0 C2.3125 0.0625 2.3125 0.0625 5 1 C6.88042897 4.50148842 8 7.0080306 8 11 C5.36 10.67 2.72 10.34 0 10 C0 10.66 0 11.32 0 12 C-1.32 12 -2.64 12 -4 12 C-2.66666667 8 -1.33333333 4 0 0 Z " fill="#4E4E4E" transform="translate(235,150)"/>
<path d="M0 0 C3.375 -0.125 3.375 -0.125 7 0 C9 2 9 2 9 6 C8.34 6 7.68 6 7 6 C7.66 7.98 8.32 9.96 9 12 C8.01 12 7.02 12 6 12 C5.67 10.68 5.34 9.36 5 8 C4.34 8 3.68 8 3 8 C3 8.99 3 9.98 3 11 C2.01 11 1.02 11 0 11 C0 7.37 0 3.74 0 0 Z " fill="#202020" transform="translate(187,150)"/>
<path d="M0 0 C1.32 0 2.64 0 4 0 C4.66 0.66 5.32 1.32 6 2 C6.33 1.34 6.66 0.68 7 0 C8.32 0 9.64 0 11 0 C11 3.63 11 7.26 11 11 C10.34 11 9.68 11 9 11 C8.67 9.35 8.34 7.7 8 6 C7.01 6.99 6.02 7.98 5 9 C4.34 8.01 3.68 7.02 3 6 C2.67 7.65 2.34 9.3 2 11 C1.34 11 0.68 11 0 11 C0 7.37 0 3.74 0 0 Z " fill="#222222" transform="translate(309,150)"/>
<path d="M0 0 C2.33294775 -0.04241723 4.66702567 -0.04092937 7 0 C8 1 8 1 8 4.875 C7.979375 5.57367188 7.95875 6.27234375 7.9375 6.9921875 C7.9105259 9.20917431 7.9105259 9.20917431 9 12 C7.68 11.67 6.36 11.34 5 11 C4.67 9.68 4.34 8.36 4 7 C3.34 7 2.68 7 2 7 C2 8.32 2 9.64 2 11 C1.34 11 0.68 11 0 11 C0 7.37 0 3.74 0 0 Z " fill="#0F0F0F" transform="translate(248,150)"/>
<path d="M0 0 C3.375 -0.125 3.375 -0.125 7 0 C7.66 0.66 8.32 1.32 9 2 C8.9765625 4.1640625 8.9765625 4.1640625 8.625 6.625 C8.45871094 7.85089844 8.45871094 7.85089844 8.2890625 9.1015625 C8.14597656 10.04128906 8.14597656 10.04128906 8 11 C5.00667261 10.0022242 4.05233685 9.2477975 2 7 C2 8.32 2 9.64 2 11 C1.34 11 0.68 11 0 11 C0 7.37 0 3.74 0 0 Z " fill="#101010" transform="translate(84,150)"/>
<path d="M0 0 C0.33 1.32 0.66 2.64 1 4 C-1.31 3.67 -3.62 3.34 -6 3 C-6 4.98 -6 6.96 -6 9 C-2.535 8.505 -2.535 8.505 1 8 C0.67 8.99 0.34 9.98 0 11 C-2.75 11.75 -2.75 11.75 -6 12 C-8.375 10.375 -8.375 10.375 -10 8 C-10.49089348 5.12476676 -10.41359492 3.70554428 -8.9375 1.1875 C-6.00731249 -0.60842137 -3.3527047 -0.18977574 0 0 Z " fill="#515151" transform="translate(145,150)"/>
<path d="M0 0 C1.32 0 2.64 0 4 0 C4 2.97 4 5.94 4 9 C5.65 9 7.3 9 9 9 C9 10.32 9 11.64 9 13 C6.03 13 3.06 13 0 13 C0 8.71 0 4.42 0 0 Z " fill="#989898" transform="translate(150,149)"/>
<path d="M0 0 C2.97 0 5.94 0 9 0 C9 0.66 9 1.32 9 2 C7.02 2 5.04 2 3 2 C3 2.66 3 3.32 3 4 C4.32 4 5.64 4 7 4 C7 4.99 7 5.98 7 7 C5.68 7 4.36 7 3 7 C3 7.66 3 8.32 3 9 C4.98 9 6.96 9 9 9 C9 9.66 9 10.32 9 11 C6.03 11 3.06 11 0 11 C0 7.37 0 3.74 0 0 Z " fill="#242424" transform="translate(97,150)"/>
<path d="M0 0 C0.66 1.32 1.32 2.64 2 4 C-0.64 3.67 -3.28 3.34 -6 3 C-5.67 4.65 -5.34 6.3 -5 8 C-2.69 8 -0.38 8 2 8 C2 8.66 2 9.32 2 10 C-0.98594424 11.49297212 -3.70853624 11.11755228 -7 11 C-7.66 10.67 -8.32 10.34 -9 10 C-9.36103152 3.6217765 -9.36103152 3.6217765 -7.875 1.0625 C-5.214973 -0.44484863 -2.99793795 -0.19986253 0 0 Z " fill="#353535" transform="translate(288,150)"/>
<path d="M0 0 C0.66 1.32 1.32 2.64 2 4 C-0.64 3.67 -3.28 3.34 -6 3 C-5.67 4.65 -5.34 6.3 -5 8 C-2.69 8 -0.38 8 2 8 C2 8.66 2 9.32 2 10 C-1.04300316 11.52150158 -3.654085 11.23899393 -7 11 C-9.15502531 7.76746204 -9.46856135 6.74849077 -9 3 C-6.71619742 -0.67945972 -4.04424788 -0.26961653 0 0 Z " fill="#202020" transform="translate(118,150)"/>
<path d="M0 0 C1.99954746 -0.04254356 4.00041636 -0.04080783 6 0 C7 1 7 1 7.25 3.4375 C7.1675 4.283125 7.085 5.12875 7 6 C6.01 6.66 5.02 7.32 4 8 C4.99 8.33 5.98 8.66 7 9 C7 9.66 7 10.32 7 11 C4.69 11 2.38 11 0 11 C0 7 0 7 2 4.75 C2.66 4.1725 3.32 3.595 4 3 C2.35 3.66 0.7 4.32 -1 5 C-0.67 3.35 -0.34 1.7 0 0 Z " fill="#1B1B1B" transform="translate(176,150)"/>
<path d="M0 0 C2.64 0 5.28 0 8 0 C8.625 2.375 8.625 2.375 9 5 C7 7 7 7 3.375 7.125 C2.26125 7.08375 1.1475 7.0425 0 7 C0 4.69 0 2.38 0 0 Z " fill="#D8D8D8" transform="translate(108,112)"/>
<path d="M0 0 C2.64 0 5.28 0 8 0 C8 0.66 8 1.32 8 2 C6.02 2 4.04 2 2 2 C2 2.66 2 3.32 2 4 C3.32 4 4.64 4 6 4 C6 4.99 6 5.98 6 7 C4.68 7 3.36 7 2 7 C2 7.66 2 8.32 2 9 C3.98 9 5.96 9 8 9 C8 9.66 8 10.32 8 11 C5.36 11 2.72 11 0 11 C0 7.37 0 3.74 0 0 Z " fill="#181818" transform="translate(201,150)"/>
<path d="M0 0 C2.64 0 5.28 0 8 0 C8 0.66 8 1.32 8 2 C6.02 2 4.04 2 2 2 C2 2.99 2 3.98 2 5 C3.32 5 4.64 5 6 5 C6 5.66 6 6.32 6 7 C5.01 7 4.02 7 3 7 C3 7.66 3 8.32 3 9 C4.98 9 6.96 9 9 9 C9 9.66 9 10.32 9 11 C6.03 11 3.06 11 0 11 C0 7.37 0 3.74 0 0 Z " fill="#1A1A1A" transform="translate(163,150)"/>
<path d="M0 0 C5.625 -0.25 5.625 -0.25 9 2 C8.67 3.65 8.34 5.3 8 7 C5.36 7 2.72 7 0 7 C0 4.69 0 2.38 0 0 Z " fill="#D5D5D5" transform="translate(253,110)"/>
<path d="M0 0 C0.99 0 1.98 0 3 0 C3 0.66 3 1.32 3 2 C3.99 1.34 4.98 0.68 6 0 C6.99 0 7.98 0 9 0 C8.690625 0.680625 8.38125 1.36125 8.0625 2.0625 C6.86629351 5.36965912 6.40994603 8.51545878 6 12 C5.01 12 4.02 12 3 12 C2.814375 10.14375 2.814375 10.14375 2.625 8.25 C2.24253695 5.1237803 1.69450477 2.71120763 0 0 Z " fill="#333333" transform="translate(124,150)"/>
<path d="M0 0 C3 1 3 1 4.1875 3.375 C5 6 5 6 5 9 C2.36 9 -0.28 9 -3 9 C-2.44271087 5.65626525 -1.64826111 2.96687001 0 0 Z " fill="#D2D2D2" transform="translate(221,113)"/>
<path d="M0 0 C2.875 -0.125 2.875 -0.125 6 0 C6.66 0.66 7.32 1.32 8 2 C7.42307692 8.57692308 7.42307692 8.57692308 6 10 C4.00041636 10.04080783 1.99954746 10.04254356 0 10 C-0.33 9.34 -0.66 8.68 -1 8 C0.65 7.67 2.3 7.34 4 7 C4 5.35 4 3.7 4 2 C2.68 1.34 1.36 0.68 0 0 Z " fill="#222222" transform="translate(297,151)"/>
<path d="M0 0 C2.31 0 4.62 0 7 0 C7 0.33 7 0.66 7 1 C5.02 1 3.04 1 1 1 C1 4.63 1 8.26 1 12 C1.66 12 2.32 12 3 12 C3 10.68 3 9.36 3 8 C6 9 6 9 7 11 C7.99 11 8.98 11 10 11 C10 11.66 10 12.32 10 13 C6.7 13 3.4 13 0 13 C0 8.71 0 4.42 0 0 Z " fill="#A2A2A2" transform="translate(83,149)"/>
<path d="M0 0 C1.66611905 -0.042721 3.33382885 -0.04063832 5 0 C6 1 6 1 6.125 3.5 C6 6 6 6 5 7 C3.33382885 7.04063832 1.66611905 7.042721 0 7 C0 4.69 0 2.38 0 0 Z " fill="#C2C1C1" transform="translate(263,152)"/>
<path d="M0 0 C1.32 0 2.64 0 4 0 C4 1.32 4 2.64 4 4 C3.01 4.495 3.01 4.495 2 5 C1.67 5.99 1.34 6.98 1 8 C1.66 8.33 2.32 8.66 3 9 C1.68 9 0.36 9 -1 9 C-1 9.66 -1 10.32 -1 11 C-1.66 11 -2.32 11 -3 11 C-2.32829194 7.1936543 -1.27253436 3.64793184 0 0 Z " fill="#1B1B1B" transform="translate(235,150)"/>
<path d="M0 0 C2 3.75 2 3.75 2 6 C5.465 5.505 5.465 5.505 9 5 C8.67 5.99 8.34 6.98 8 8 C2.55263158 9.33157895 2.55263158 9.33157895 0.125 7.875 C-1.33772308 5.43712819 -1.29431219 3.7959658 -1 1 C-0.67 0.67 -0.34 0.34 0 0 Z " fill="#2B2B2B" transform="translate(137,153)"/>
<path d="M0 0 C0.66 0 1.32 0 2 0 C2 2.97 2 5.94 2 9 C3.98 9 5.96 9 8 9 C8 9.66 8 10.32 8 11 C5.36 11 2.72 11 0 11 C0 7.37 0 3.74 0 0 Z " fill="#101010" transform="translate(151,150)"/>
<path d="M0 0 C0.99 0 1.98 0 3 0 C3.99 3.3 4.98 6.6 6 10 C5.01 10 4.02 10 3 10 C2.67 8.68 2.34 7.36 2 6 C1.34 6 0.68 6 0 6 C-0.33 6.66 -0.66 7.32 -1 8 C-0.67 5.36 -0.34 2.72 0 0 Z " fill="#565656" transform="translate(190,152)"/>
<path d="M0 0 C1.2065625 0.0309375 1.2065625 0.0309375 2.4375 0.0625 C2.4375 1.7125 2.4375 3.3625 2.4375 5.0625 C0.7875 5.3925 -0.8625 5.7225 -2.5625 6.0625 C-2.94468767 4.40635343 -3.27645102 2.73792976 -3.5625 1.0625 C-2.5625 0.0625 -2.5625 0.0625 0 0 Z " fill="#E4E3E3" transform="translate(299.5625,152.9375)"/>
<path d="M0 0 C1.32 0 2.64 0 4 0 C4.99 3.3 5.98 6.6 7 10 C5.68 9.67 4.36 9.34 3 9 C3 7.35 3 5.7 3 4 C2.01 3.67 1.02 3.34 0 3 C0 2.01 0 1.02 0 0 Z " fill="#5D5D5D" transform="translate(250,152)"/>
<path d="M0 0 C0.99 0 1.98 0 3 0 C3.433125 1.2065625 3.433125 1.2065625 3.875 2.4375 C4.73262568 5.1326468 4.73262568 5.1326468 7 6 C6.67 7.65 6.34 9.3 6 11 C5.34 11 4.68 11 4 11 C3.32880451 9.5437455 2.66318193 8.08492133 2 6.625 C1.62875 5.81289062 1.2575 5.00078125 0.875 4.1640625 C0 2 0 2 0 0 Z " fill="#202020" transform="translate(213,150)"/>
<path d="M0 0 C0.94875 0.04125 1.8975 0.0825 2.875 0.125 C3.535 1.445 4.195 2.765 4.875 4.125 C2.235 3.795 -0.405 3.465 -3.125 3.125 C-3.455 4.445 -3.785 5.765 -4.125 7.125 C-4.75 4.75 -4.75 4.75 -5.125 2.125 C-3.125 0.125 -3.125 0.125 0 0 Z " fill="#3D3D3D" transform="translate(285.125,149.875)"/>
<path d="M0 0 C1.32 0 2.64 0 4 0 C4 1.32 4 2.64 4 4 C3.34 4 2.68 4 2 4 C2 6.31 2 8.62 2 11 C1.34 11 0.68 11 0 11 C0 7.37 0 3.74 0 0 Z " fill="#0C0C0C" transform="translate(309,150)"/>
<path d="M0 0 C-0.57344937 2.86724686 -0.8614515 3.8614515 -3 6 C-3 5.34 -3 4.68 -3 4 C-4.32 3.67 -5.64 3.34 -7 3 C-7 2.01 -7 1.02 -7 0 C-2.25 -1.125 -2.25 -1.125 0 0 Z " fill="#5B5B5B" transform="translate(93,152)"/>
<path d="M0 0 C1.98 0 3.96 0 6 0 C5.67 1.65 5.34 3.3 5 5 C4.67 4.34 4.34 3.68 4 3 C2.35 3.66 0.7 4.32 -1 5 C-0.67 3.35 -0.34 1.7 0 0 Z " fill="#474747" transform="translate(176,150)"/>
<path d="M0 0 C0.99 0 1.98 0 3 0 C2.34 2.64 1.68 5.28 1 8 C-0.32 7.34 -1.64 6.68 -3 6 C-3 5.34 -3 4.68 -3 4 C-2.34 4 -1.68 4 -1 4 C-0.67 2.68 -0.34 1.36 0 0 Z " fill="#434343" transform="translate(226,150)"/>
<path d="M0 0 C1.32 0 2.64 0 4 0 C4 3.63 4 7.26 4 11 C3.34 10.67 2.68 10.34 2 10 C2.33 8.02 2.66 6.04 3 4 C2.01 3.67 1.02 3.34 0 3 C0 2.01 0 1.02 0 0 Z " fill="#0C0C0C" transform="translate(316,150)"/>
<path d="M0 0 C1.65 0 3.3 0 5 0 C3.515 2.475 3.515 2.475 2 5 C-0.31 4.67 -2.62 4.34 -5 4 C-5 3.67 -5 3.34 -5 3 C-3.35 3 -1.7 3 0 3 C0 2.01 0 1.02 0 0 Z " fill="#F45D5D" transform="translate(54,114)"/>
<path d="M0 0 C1.98 0 3.96 0 6 0 C6.66 1.32 7.32 2.64 8 4 C5.69 3.67 3.38 3.34 1 3 C0.67 2.01 0.34 1.02 0 0 Z " fill="#424242" transform="translate(112,150)"/>
<path d="M0 0 C2.875 -0.125 2.875 -0.125 6 0 C8 2 8 2 8 6 C7.34 6 6.68 6 6 6 C5.7525 5.38125 5.505 4.7625 5.25 4.125 C3.79371361 1.64931313 2.62187494 1.04874998 0 0 Z " fill="#0B0B0B" transform="translate(297,151)"/>
<path d="M0 0 C0 0.66 0 1.32 0 2 C-2.95664519 3.4783226 -5.74229737 3.06032783 -9 3 C-6.15236477 0.15236477 -3.96383452 0 0 0 Z " fill="#2A2A2A" transform="translate(290,158)"/>
<path d="M0 0 C0 0.66 0 1.32 0 2 C-2.95664519 3.4783226 -5.74229737 3.06032783 -9 3 C-6.15236477 0.15236477 -3.96383452 0 0 0 Z " fill="#292929" transform="translate(120,158)"/>
</svg>
